<svg width="179" height="179" viewBox="0 0 179 179" fill="none" xmlns="http://www.w3.org/2000/svg">
<path d="M51.2696 161.039C51.2696 161.039 52.6184 161.778 53.9669 162.516C55.3786 163.115 56.7905 163.717 56.7905 163.717L53.5584 171.109C53.5584 171.109 52.0072 170.445 50.4524 169.779C48.9676 168.973 47.4859 168.166 47.4859 168.166L51.2696 161.039Z" fill="#00FF26"/>
<path d="M41.6379 155.058L46.7172 158.535L42.4848 165.404L36.9042 161.592L41.6379 155.058Z" fill="#00FF26"/>
<path d="M32.9191 147.809C32.9191 147.809 33.1846 148.085 33.5867 148.502C34.0018 148.899 34.6099 149.372 35.1944 149.874C36.3705 150.864 37.5463 151.856 37.5463 151.856L32.4077 158.077C32.4077 158.077 31.119 156.988 29.8266 155.898C29.1852 155.348 28.5242 154.824 28.066 154.387C27.6242 153.932 27.332 153.629 27.332 153.629L32.9191 147.809Z" fill="#00FF26"/>
<path d="M25.3559 139.372C25.3559 139.372 26.3057 140.578 27.2591 141.784C27.7212 142.4 28.2095 142.989 28.6341 143.385C29.0361 143.799 29.3022 144.074 29.3022 144.074L23.3528 149.522C23.3528 149.522 23.0573 149.218 22.6188 148.765C22.1567 148.326 21.6189 147.678 21.104 147.006C20.0577 145.679 19.0075 144.355 19.0075 144.355L25.3559 139.372Z" fill="#00FF26"/>
<path d="M18.9327 130.044L22.2514 135.214L15.5939 139.777L11.9501 134.085L18.9327 130.044Z" fill="#00FF26"/>
<path d="M14.0296 119.829C14.0296 119.829 14.5876 121.261 15.149 122.693C15.8469 124.061 16.5473 125.428 16.5473 125.428L9.31611 129.014C9.31611 129.014 8.55537 127.508 7.78796 126.001C7.16988 124.428 6.54873 122.857 6.54873 122.857L14.0296 119.829Z" fill="#00FF26"/>
<path d="M62.7528 166.09C62.7528 166.09 64.975 166.778 68.3129 167.807C69.9804 168.322 72.0131 168.599 74.1388 169.076C75.2119 169.269 76.3046 169.586 77.4442 169.695C78.5863 169.813 79.7459 169.933 80.9014 170.051C82.061 170.175 83.2165 170.297 84.3594 170.418C85.502 170.484 86.6347 170.446 87.7237 170.468C89.9062 170.428 91.9524 170.631 93.6892 170.4C97.1718 170.096 99.4903 169.891 99.4903 169.891L100.508 177.896C100.508 177.896 97.9574 178.12 94.1344 178.456C92.221 178.697 89.9757 178.498 87.5775 178.534C86.3784 178.511 85.1362 178.544 83.8773 178.473C82.6251 178.343 81.3532 178.21 80.0773 178.077C78.8054 177.944 77.5299 177.81 76.2779 177.679C75.0221 177.552 73.8233 177.215 72.6406 177.005C70.2991 176.486 68.0738 176.165 66.2336 175.603C62.5632 174.472 60.1183 173.717 60.1183 173.717L62.7528 166.09Z" fill="#00FF26"/>
<path d="M80.6577 8.54196C80.6577 8.54196 79.6215 8.58326 77.8277 8.83211C76.0503 9.16639 73.5064 9.64125 70.4574 10.2141C64.4657 11.795 56.5507 14.3858 49.3397 18.4931C42.2018 22.6679 35.6552 27.8048 31.387 32.3215C30.8355 32.8682 30.2742 33.3595 29.7993 33.8795C29.3444 34.4245 28.9127 34.9355 28.5076 35.4206C27.6938 36.3837 26.9862 37.226 26.4013 37.9184C25.2322 39.3019 24.5616 40.0906 24.5616 40.0906L18.1374 35.208C18.1374 35.208 18.8714 34.338 20.1508 32.8167C20.795 32.056 21.5723 31.1327 22.4656 30.0734C22.9107 29.5452 23.3859 28.9805 23.8905 28.3879C24.4118 27.8163 25.0232 27.2701 25.6276 26.6703C30.3239 21.7118 37.5188 16.04 45.3804 11.4645C53.3121 6.94777 62.0041 4.08624 68.5943 2.36532C71.9456 1.73447 74.7389 1.21162 76.692 0.846302C77.6681 0.660049 78.4591 0.661601 78.9868 0.590538C79.5181 0.54359 79.8008 0.518948 79.8008 0.518948L80.6577 8.54196Z" fill="#00FF26"/>
<path d="M169.84 99.5336C169.84 99.5336 170.011 97.8879 170.315 95.0081C170.549 93.5733 170.392 91.8029 170.46 89.79C170.47 88.7818 170.48 87.7076 170.493 86.5767C170.486 85.4456 170.309 84.2647 170.22 83.0259C169.546 73.1444 166.268 60.011 159.608 48.5257C152.939 37.0488 143.203 27.6717 134.948 22.178C133.923 21.4736 132.94 20.8032 132.01 20.16C131.067 19.531 130.083 19.0874 129.21 18.5877C127.439 17.6195 125.896 16.7788 124.626 16.0848C121.966 14.9521 120.441 14.3049 120.441 14.3049L123.544 6.85809C123.544 6.85809 125.214 7.57 128.144 8.82247C129.544 9.58313 131.239 10.5064 133.186 11.5662C134.146 12.1173 135.225 12.6142 136.258 13.3031C137.285 14.0037 138.368 14.7415 139.492 15.5117C140.616 16.2813 141.789 17.0815 143.004 17.9135C144.18 18.7934 145.306 19.8201 146.512 20.8132C147.704 21.8232 148.933 22.8553 150.187 23.9154C151.356 25.0632 152.504 26.2872 153.696 27.5076C158.565 32.3019 162.771 38.3038 166.59 44.482C173.924 57.1131 177.525 71.5439 178.263 82.4017C178.361 83.7619 178.544 85.0603 178.554 86.3048C178.544 87.5467 178.536 88.7261 178.526 89.8339C178.458 92.0492 178.608 93.9889 178.365 95.5682C178.033 98.7355 177.843 100.544 177.843 100.544L169.84 99.5336Z" fill="#00FF26"/>
<path d="M91.9854 8.11206C91.9854 8.11206 90.4505 8.10075 88.9124 8.08895C88.1419 8.08048 87.3748 8.07355 86.8001 8.06893C86.2223 8.04866 85.8402 8.08408 85.8402 8.08049L85.4949 0.0221006C85.4949 0.0221006 85.9167 -0.013066 86.5476 0.00540721C87.1823 0.00720327 88.026 0.0133773 88.8714 0.0221009C90.5606 0.0336467 92.2514 0.0487856 92.2514 0.0487856L91.9854 8.11206Z" fill="#00FF26"/>
<path d="M103.49 9.30737C103.49 9.30737 103.115 9.22912 102.55 9.11469C101.989 8.97024 101.23 8.87199 100.462 8.81067C98.9328 8.65314 97.4062 8.49688 97.4062 8.49688L98.2049 0.466176C98.2049 0.466176 99.8857 0.643721 101.565 0.816394C102.409 0.89157 103.244 0.999095 103.862 1.15355C104.483 1.27825 104.895 1.36136 104.895 1.36136L103.49 9.30737Z" fill="#00FF26"/>
<path d="M114.702 12.1492C114.702 12.1492 113.234 11.6956 111.767 11.2422C111.033 11.0149 110.299 10.7855 109.747 10.6144C109.204 10.4302 108.817 10.3922 108.817 10.3922L110.754 2.55777C110.754 2.55777 111.177 2.6078 111.777 2.8051C112.385 2.99112 113.192 3.24178 113.999 3.48963C115.617 3.98738 117.228 4.48434 117.228 4.48434L114.702 12.1492Z" fill="#00FF26"/>
<path d="M24.562 40.0911C24.562 40.0911 23.9044 41.0593 22.7484 42.755C21.6258 44.4675 19.8053 46.7821 18.2512 49.9412C14.6605 55.9729 11.213 64.8047 9.50906 74.0086C7.73196 83.2058 7.782 92.6622 8.67171 99.6269C9.19994 103.096 9.81437 105.963 10.163 107.981C10.7277 109.949 11.0532 111.075 11.0532 111.075L3.27755 113.234C3.27755 113.234 2.92555 111.997 2.30805 109.833C1.91245 107.617 1.24182 104.467 0.670492 100.655C-0.316187 93.0023 -0.37237 82.6096 1.58714 72.4955C3.45711 62.3734 7.26686 52.6583 11.1997 46.0219C12.9232 42.5557 14.903 40.0048 16.1418 38.1246C17.414 36.27 18.1378 35.2087 18.1378 35.2087L24.562 40.0911Z" fill="#00FF26"/>
</svg>
