<svg width="20" height="20" viewBox="0 0 20 20" fill="none" xmlns="http://www.w3.org/2000/svg">
<g clip-path="url(#clip0_4303_48)">
<path fill-rule="evenodd" clip-rule="evenodd" d="M11.1623 1.10387C10.43 0.743371 9.56934 0.743371 8.83709 1.10387L1.54375 4.69472C0.596097 5.16129 0.596091 6.5057 1.54375 6.97227L8.83709 10.5631C9.56934 10.9237 10.43 10.9237 11.1623 10.5632L18.4556 6.97227C19.4033 6.50571 19.4033 5.1613 18.4556 4.69472L11.1623 1.10387ZM1.58559 8.84075C1.70164 8.78358 1.83764 8.78358 1.95368 8.84075L8.83709 12.2297C9.56934 12.5902 10.43 12.5902 11.1623 12.2297L18.0457 8.84075C18.1617 8.78358 18.2977 8.78358 18.4138 8.84075L18.4556 8.86133C19.4033 9.32791 19.4033 10.6723 18.4556 11.1389L11.1623 14.7297C10.43 15.0902 9.56934 15.0902 8.83709 14.7297L1.54375 11.1389C0.596091 10.6723 0.596097 9.32791 1.54375 8.86133L1.58559 8.84075ZM1.95368 13.0075C1.83764 12.9503 1.70164 12.9503 1.58559 13.0075L1.54375 13.0281C0.596097 13.4947 0.596091 14.8391 1.54375 15.3057L8.83709 18.8965C9.56934 19.257 10.43 19.257 11.1623 18.8965L18.4556 15.3057C19.4033 14.8391 19.4033 13.4947 18.4556 13.0281L18.4138 13.0075C18.2977 12.9503 18.1617 12.9503 18.0457 13.0075L11.1623 16.3965C10.43 16.757 9.56934 16.757 8.83709 16.3965L1.95368 13.0075Z" fill="#759486"/>
</g>
<defs>
<clipPath id="clip0_4303_48">
<rect width="20" height="20" fill="white"/>
</clipPath>
</defs>
</svg>
