<svg width="175" height="175" viewBox="0 0 175 175" fill="none" xmlns="http://www.w3.org/2000/svg">
<path d="M86.4189 1.58233L84.6445 1.61551L84.9121 15.9236L86.6864 15.8904L86.4189 1.58233Z" fill="#85FF7E" fill-opacity="0.26"/>
<path d="M89.3669 1.60304L88.8457 15.9046L90.6192 15.9692L91.1405 1.66767L89.3669 1.60304Z" fill="#85FF7E" fill-opacity="0.26"/>
<path d="M94.0765 1.87795L92.7686 16.1282L94.5357 16.2904L95.8437 2.04015L94.0765 1.87795Z" fill="#85FF7E" fill-opacity="0.26"/>
<path d="M98.7699 2.3643L96.6787 16.522L98.4344 16.7813L100.526 2.62363L98.7699 2.3643Z" fill="#85FF7E" fill-opacity="0.26"/>
<path d="M103.419 3.14522L100.551 17.1656L102.289 17.5212L105.158 3.50089L103.419 3.14522Z" fill="#85FF7E" fill-opacity="0.26"/>
<path d="M108.02 4.16027L104.384 18.0017L106.1 18.4526L109.736 4.61115L108.02 4.16027Z" fill="#85FF7E" fill-opacity="0.26"/>
<path d="M112.547 5.45194L108.154 19.0716L109.843 19.6164L114.236 5.99675L112.547 5.45194Z" fill="#85FF7E" fill-opacity="0.26"/>
<path d="M117.021 6.97592L111.884 20.333L113.541 20.97L118.677 7.61287L117.021 6.97592Z" fill="#85FF7E" fill-opacity="0.26"/>
<path d="M121.382 8.71352L115.517 21.7681L117.136 22.4953L123.001 9.44074L121.382 8.71352Z" fill="#85FF7E" fill-opacity="0.26"/>
<path d="M125.642 10.74L119.068 23.4514L120.644 24.2667L127.218 11.5552L125.642 10.74Z" fill="#85FF7E" fill-opacity="0.26"/>
<path d="M129.772 12.989L122.508 25.3181L124.037 26.2189L131.301 13.8898L129.772 12.989Z" fill="#85FF7E" fill-opacity="0.26"/>
<path d="M133.798 15.4533L125.867 27.3643L127.344 28.3479L135.275 16.4369L133.798 15.4533Z" fill="#85FF7E" fill-opacity="0.26"/>
<path d="M137.673 18.1163L129.097 29.5725L130.518 30.6361L139.093 19.1799L137.673 18.1163Z" fill="#85FF7E" fill-opacity="0.26"/>
<path d="M141.416 20.9887L132.222 31.9556L133.582 33.0957L142.776 22.1288L141.416 20.9887Z" fill="#85FF7E" fill-opacity="0.26"/>
<path d="M144.98 24.1004L135.194 34.543L136.489 35.7565L146.275 25.3139L144.98 24.1004Z" fill="#85FF7E" fill-opacity="0.26"/>
<path d="M148.375 27.3616L138.029 37.2508L139.256 38.5337L149.601 28.6446L148.375 27.3616Z" fill="#85FF7E" fill-opacity="0.26"/>
<path d="M151.56 30.8206L140.686 40.1243L141.84 41.4728L152.714 32.1691L151.56 30.8206Z" fill="#85FF7E" fill-opacity="0.26"/>
<path d="M154.574 34.4687L143.205 43.1604L144.282 44.5704L155.652 35.8786L154.574 34.4687Z" fill="#85FF7E" fill-opacity="0.26"/>
<path d="M157.359 38.2501L145.528 46.302L146.526 47.7692L158.357 39.7173L157.359 38.2501Z" fill="#85FF7E" fill-opacity="0.26"/>
<path d="M159.928 42.2023L147.672 49.5909L148.589 51.1107L160.844 43.7221L159.928 42.2023Z" fill="#85FF7E" fill-opacity="0.26"/>
<path d="M162.287 46.2754L149.643 52.9756L150.473 54.5437L163.118 47.8435L162.287 46.2754Z" fill="#85FF7E" fill-opacity="0.26"/>
<path d="M164.419 50.4692L151.425 56.4632L152.168 58.0746L165.163 52.0806L164.419 50.4692Z" fill="#85FF7E" fill-opacity="0.26"/>
<path d="M166.357 54.8051L153.052 60.075L153.705 61.725L167.011 56.4552L166.357 54.8051Z" fill="#85FF7E" fill-opacity="0.26"/>
<path d="M168.004 59.2306L154.429 63.7583L154.99 65.4419L168.566 60.9141L168.004 59.2306Z" fill="#85FF7E" fill-opacity="0.26"/>
<path d="M169.391 63.7061L155.588 67.481L156.056 69.1927L169.859 65.4178L169.391 63.7061Z" fill="#85FF7E" fill-opacity="0.26"/>
<path d="M170.561 68.2719L156.57 71.2788L156.943 73.0138L170.934 70.0069L170.561 68.2719Z" fill="#85FF7E" fill-opacity="0.26"/>
<path d="M171.486 72.9012L157.35 75.1336L157.627 76.8865L171.762 74.6541L171.486 72.9012Z" fill="#85FF7E" fill-opacity="0.26"/>
<path d="M172.156 77.5811L157.919 79.0325L158.099 80.7981L172.336 79.3467L172.156 77.5811Z" fill="#85FF7E" fill-opacity="0.26"/>
<path d="M172.525 82.2803L158.23 82.9441L158.313 84.7169L172.608 84.0531L172.525 82.2803Z" fill="#85FF7E" fill-opacity="0.26"/>
<path d="M150.713 119.275L149.893 120.849L162.583 127.462L163.403 125.888L150.713 119.275Z" fill="#85FF7E" fill-opacity="0.26"/>
<path d="M148.849 122.684L147.944 124.21L160.252 131.511L161.158 129.985L148.849 122.684Z" fill="#85FF7E" fill-opacity="0.26"/>
<path d="M146.776 126.032L145.788 127.506L157.675 135.474L158.663 134L146.776 126.032Z" fill="#85FF7E" fill-opacity="0.26"/>
<path d="M144.572 129.291L143.504 130.708L154.934 139.32L156.002 137.903L144.572 129.291Z" fill="#85FF7E" fill-opacity="0.26"/>
<path d="M142.165 132.363L141.021 133.72L151.959 142.948L153.104 141.591L142.165 132.363Z" fill="#85FF7E" fill-opacity="0.26"/>
<path d="M139.562 135.342L138.345 136.634L148.758 146.45L149.976 145.158L139.562 135.342Z" fill="#85FF7E" fill-opacity="0.26"/>
<path d="M136.826 138.152L135.539 139.374L145.396 149.749L146.682 148.526L136.826 138.152Z" fill="#85FF7E" fill-opacity="0.26"/>
<path d="M133.946 140.837L132.594 141.986L141.864 152.888L143.216 151.739L133.946 140.837Z" fill="#85FF7E" fill-opacity="0.26"/>
<path d="M130.929 143.301L129.516 144.375L138.172 155.771L139.585 154.697L130.929 143.301Z" fill="#85FF7E" fill-opacity="0.26"/>
<path d="M127.776 145.644L126.306 146.637L134.321 158.494L135.791 157.5L127.776 145.644Z" fill="#85FF7E" fill-opacity="0.26"/>
<path d="M124.49 147.779L122.967 148.691L130.318 160.97L131.841 160.059L124.49 147.779Z" fill="#85FF7E" fill-opacity="0.26"/>
<path d="M121.084 149.773L119.513 150.599L126.175 163.264L127.746 162.438L121.084 149.773Z" fill="#85FF7E" fill-opacity="0.26"/>
<path d="M117.557 151.528L115.943 152.266L121.897 165.278L123.511 164.54L117.557 151.528Z" fill="#85FF7E" fill-opacity="0.26"/>
<path d="M113.969 153.108L112.317 153.756L117.546 167.077L119.197 166.429L113.969 153.108Z" fill="#85FF7E" fill-opacity="0.26"/>
<path d="M110.31 154.511L108.625 155.067L113.111 168.656L114.796 168.1L110.31 154.511Z" fill="#85FF7E" fill-opacity="0.26"/>
<path d="M106.566 155.649L104.853 156.111L108.585 169.927L110.298 169.464L106.566 155.649Z" fill="#85FF7E" fill-opacity="0.26"/>
<path d="M102.764 156.614L101.028 156.981L103.993 170.982L105.73 170.614L102.764 156.614Z" fill="#85FF7E" fill-opacity="0.26"/>
<path d="M98.9006 157.376L97.147 157.647L99.3366 171.789L101.09 171.518L98.9006 157.376Z" fill="#85FF7E" fill-opacity="0.26"/>
<path d="M95.0104 157.922L93.2441 158.096L94.6512 172.337L96.4174 172.163L95.0104 157.922Z" fill="#85FF7E" fill-opacity="0.26"/>
<path d="M91.1102 158.248L89.3374 158.325L89.9583 172.622L91.7311 172.545L91.1102 158.248Z" fill="#85FF7E" fill-opacity="0.26"/>
<path d="M85.4117 158.36L85.2427 172.669L87.0173 172.69L87.1863 158.381L85.4117 158.36Z" fill="#85FF7E" fill-opacity="0.26"/>
<path d="M81.5149 158.129L80.5596 172.409L82.3302 172.527L83.2855 158.248L81.5149 158.129Z" fill="#85FF7E" fill-opacity="0.26"/>
<path d="M77.5663 157.713L75.8252 171.917L77.5865 172.133L79.3276 157.929L77.5663 157.713Z" fill="#85FF7E" fill-opacity="0.26"/>
<path d="M73.7012 157.074L71.1807 171.161L72.9276 171.474L75.4481 157.387L73.7012 157.074Z" fill="#85FF7E" fill-opacity="0.26"/>
<path d="M69.8683 156.233L66.5762 170.16L68.3034 170.568L71.5955 156.641L69.8683 156.233Z" fill="#85FF7E" fill-opacity="0.26"/>
<path d="M66.1096 155.176L62.0552 168.9L63.757 169.403L67.8115 155.678L66.1096 155.176Z" fill="#85FF7E" fill-opacity="0.26"/>
<path d="M62.3765 153.924L57.5718 167.404L59.2434 168L64.0482 154.52L62.3765 153.924Z" fill="#85FF7E" fill-opacity="0.26"/>
<path d="M58.7354 152.472L53.1953 165.666L54.8316 166.353L60.3716 153.159L58.7354 152.472Z" fill="#85FF7E" fill-opacity="0.26"/>
<path d="M55.1998 150.789L48.9409 163.659L50.5371 164.435L56.796 151.565L55.1998 150.789Z" fill="#85FF7E" fill-opacity="0.26"/>
<path d="M28.5017 127.58L16.8267 135.855L17.8529 137.303L29.5279 129.028L28.5017 127.58Z" fill="#85FF7E" fill-opacity="0.26"/>
<path d="M26.3594 124.295L14.2471 131.916L15.1921 133.418L27.3045 125.797L26.3594 124.295Z" fill="#85FF7E" fill-opacity="0.26"/>
<path d="M24.412 120.887L11.8975 127.829L12.7582 129.381L25.2728 122.439L24.412 120.887Z" fill="#85FF7E" fill-opacity="0.26"/>
<path d="M22.6301 117.402L9.75342 123.644L10.5275 125.241L23.4042 118.999L22.6301 117.402Z" fill="#85FF7E" fill-opacity="0.26"/>
<path d="M21.0817 113.798L7.87939 119.321L8.5642 120.958L21.7665 115.435L21.0817 113.798Z" fill="#85FF7E" fill-opacity="0.26"/>
<path d="M19.7086 110.126L6.22217 114.913L6.81569 116.585L20.3022 111.799L19.7086 110.126Z" fill="#85FF7E" fill-opacity="0.26"/>
<path d="M18.5495 106.363L4.81982 110.4L5.32039 112.103L19.0501 108.066L18.5495 106.363Z" fill="#85FF7E" fill-opacity="0.26"/>
<path d="M17.6007 102.554L3.66943 105.829L4.07555 107.557L18.0068 104.282L17.6007 102.554Z" fill="#85FF7E" fill-opacity="0.26"/>
<path d="M16.8375 98.7235L2.74707 101.226L3.05735 102.973L17.1478 100.471L16.8375 98.7235Z" fill="#85FF7E" fill-opacity="0.26"/>
<path d="M16.3148 94.8093L2.1084 96.532L2.32201 98.2936L16.5285 96.5709L16.3148 94.8093Z" fill="#85FF7E" fill-opacity="0.26"/>
<path d="M15.9991 90.9013L1.71924 91.8396L1.83559 93.6103L16.1154 92.672L15.9991 90.9013Z" fill="#85FF7E" fill-opacity="0.26"/>
<path d="M1.58391 87.1194L1.60254 88.8941L15.9128 88.7438L15.8942 86.9692L1.58391 87.1194Z" fill="#85FF7E" fill-opacity="0.26"/>
<path d="M1.71641 82.4205L1.63721 84.1934L15.9336 84.8321L16.0128 83.0592L1.71641 82.4205Z" fill="#85FF7E" fill-opacity="0.26"/>
<path d="M2.11282 77.7276L1.93604 79.4934L16.1756 80.919L16.3524 79.1531L2.11282 77.7276Z" fill="#85FF7E" fill-opacity="0.26"/>
<path d="M2.75861 73.0517L2.48486 74.8052L16.6245 77.0127L16.8983 75.2592L2.75861 73.0517Z" fill="#85FF7E" fill-opacity="0.26"/>
<path d="M3.66681 68.4249L3.29688 70.1607L17.2936 73.1437L17.6635 71.408L3.66681 68.4249Z" fill="#85FF7E" fill-opacity="0.26"/>
<path d="M4.81697 63.8647L4.35205 65.5772L18.1629 69.3266L18.6278 67.6141L4.81697 63.8647Z" fill="#85FF7E" fill-opacity="0.26"/>
<path d="M6.20499 59.3642L5.64648 61.0486L19.2295 65.5524L19.7881 63.8679L6.20499 59.3642Z" fill="#85FF7E" fill-opacity="0.26"/>
<path d="M7.87704 54.943L7.22656 56.594L20.5414 61.8398L21.1918 60.1888L7.87704 54.943Z" fill="#85FF7E" fill-opacity="0.26"/>
<path d="M9.77032 50.6458L9.02979 52.2586L22.0348 58.2302L22.7754 56.6175L9.77032 50.6458Z" fill="#85FF7E" fill-opacity="0.26"/>
<path d="M11.8897 46.4073L11.0615 47.9771L23.7189 54.6551L24.5472 53.0852L11.8897 46.4073Z" fill="#85FF7E" fill-opacity="0.26"/>
<path d="M14.2396 42.3419L13.3262 43.8636L25.5958 51.2288L26.5093 49.707L14.2396 42.3419Z" fill="#85FF7E" fill-opacity="0.26"/>
<path d="M16.8254 38.3941L15.8296 39.8631L27.675 47.8931L28.6708 46.4241L16.8254 38.3941Z" fill="#85FF7E" fill-opacity="0.26"/>
<path d="M19.6069 34.594L18.5317 36.0059L29.9168 44.6757L30.9919 43.2638L19.6069 34.594Z" fill="#85FF7E" fill-opacity="0.26"/>
<path d="M22.6138 30.967L21.4624 32.3174L32.3522 41.6019L33.5036 40.2515L22.6138 30.967Z" fill="#85FF7E" fill-opacity="0.26"/>
<path d="M25.8035 27.4806L24.5796 28.7657L34.9422 38.6354L36.1662 37.3503L25.8035 27.4806Z" fill="#85FF7E" fill-opacity="0.26"/>
<path d="M29.1801 24.1908L27.8872 25.4065L37.6905 35.8321L38.9834 34.6164L29.1801 24.1908Z" fill="#85FF7E" fill-opacity="0.26"/>
<path d="M32.7423 21.1138L31.3843 22.2564L40.5977 33.2068L41.9557 32.0642L32.7423 21.1138Z" fill="#85FF7E" fill-opacity="0.26"/>
<path d="M36.4426 18.1922L35.0239 19.2583L43.621 30.6983L45.0397 29.6322L36.4426 18.1922Z" fill="#85FF7E" fill-opacity="0.26"/>
</svg>
