<?xml version="1.0" encoding="UTF-8"?>
<svg id="Layer_1" xmlns="http://www.w3.org/2000/svg" xmlns:xlink="http://www.w3.org/1999/xlink" version="1.1" viewBox="0 0 356 41">
  <!-- Generator: Adobe Illustrator 30.3.0, SVG Export Plug-In . SVG Version: 2.1.3 Build 182)  -->
  <defs>
    <style>
      .st0 {
        mask: url(#mask);
      }

      .st1 {
        fill: #f32302;
      }

      .st2 {
        fill: #fff;
      }
    </style>
    <mask id="mask" x="-.16" y="-.92" width="356" height="42" maskUnits="userSpaceOnUse">
      <g id="path-1-outside-1_4017_21304">
        <rect class="st2" x="-.16" y="-.92" width="356" height="42"/>
        <path d="M12.31,27.09c0-.41-.04-.78-.11-1.11-.07-.33-.23-.64-.47-.92-.23-.28-.57-.56-1.02-.84-.44-.28-1.01-.57-1.72-.88-.84-.35-1.66-.73-2.45-1.12-.79-.41-1.51-.88-2.14-1.41-.64-.53-1.14-1.16-1.52-1.88-.36-.73-.55-1.58-.55-2.56s.17-1.83.52-2.61c.35-.78.85-1.45,1.5-2,.65-.56,1.4-.99,2.27-1.3.88-.3,1.85-.45,2.92-.45,1.46,0,2.72.3,3.78.91,1.07.6,1.9,1.43,2.48,2.48.59,1.05.89,2.26.89,3.62h-4.56c0-.65-.09-1.21-.28-1.7-.18-.5-.46-.89-.86-1.17-.4-.28-.91-.42-1.53-.42-.58,0-1.07.12-1.45.36-.38.23-.66.55-.84.95-.18.4-.27.84-.27,1.34,0,.38.09.71.27,1.02.19.29.44.56.77.8.32.23.7.45,1.14.67.45.22.94.43,1.47.64,1.03.41,1.94.85,2.73,1.34.79.48,1.45,1.02,1.98,1.62.53.59.93,1.27,1.2,2.02.27.75.41,1.6.41,2.56s-.17,1.81-.5,2.59c-.32.77-.8,1.44-1.42,2-.62.55-1.38.98-2.27,1.28-.88.3-1.85.45-2.94.45s-2.05-.15-2.98-.44c-.94-.3-1.77-.76-2.48-1.36-.71-.61-1.27-1.39-1.67-2.33-.41-.95-.61-2.07-.61-3.36h4.58c0,.69.07,1.28.2,1.77.14.48.34.86.62,1.16.28.28.62.49,1.03.64.42.14.89.2,1.42.2.6,0,1.08-.11,1.44-.34.36-.23.62-.54.78-.92.16-.39.23-.82.23-1.31ZM28.2,14.39l-4.89,18.69h-4.83l7.11-22.75h3.02l-.41,4.06ZM32.06,33.08l-4.92-18.69-.45-4.06h3.06l7.17,22.75h-4.86ZM32.23,24.59v3.8h-10.27v-3.8h10.27ZM26.88,4.23l3.09,4.83h-3.7l-4.33-4.83h4.94ZM55,10.33v22.75h-4.42l-7.14-14.23v14.23h-4.34V10.33h4.36l7.2,14.39v-14.39h4.34ZM74.19,10.33v22.75h-4.55V10.33h4.55ZM79.84,10.33v3.8h-15.75v-3.8h15.75ZM95.11,19.55v3.78h-9.33v-3.78h9.33ZM87.08,10.33v22.75h-4.58V10.33h4.58ZM98.42,10.33v22.75h-4.53V10.33h4.53ZM119.39,9.06h2.88c0,1.54-.18,2.86-.53,3.95-.34,1.08-.94,1.91-1.8,2.48-.86.57-2.04.86-3.56.86v-2.47c.94,0,1.61-.19,2.03-.58.43-.39.7-.94.81-1.66.11-.72.17-1.58.17-2.59ZM112.38,10.33h4.56v15c0,1.75-.32,3.23-.97,4.44-.64,1.2-1.52,2.1-2.64,2.72-1.12.6-2.41.91-3.86.91s-2.76-.3-3.89-.91c-1.14-.61-2.02-1.52-2.66-2.72-.62-1.21-.94-2.69-.94-4.44v-15h4.56v15c0,.99.11,1.8.33,2.44.23.64.56,1.1.98,1.41.44.29.97.44,1.61.44s1.18-.15,1.59-.44c.43-.3.75-.77.97-1.41.23-.64.34-1.45.34-2.44v-15ZM137.02,8.59h2.94c0,1.47-.19,2.72-.56,3.75-.37,1.03-.92,1.82-1.67,2.36-.74.54-1.69.81-2.84.81v-2.47c.55,0,.98-.18,1.3-.53.31-.35.53-.86.66-1.53.12-.67.19-1.46.19-2.39ZM138.14,21.19v1.03c0,1.73-.2,3.29-.61,4.67-.41,1.39-.98,2.56-1.72,3.53-.74.96-1.61,1.69-2.62,2.2-1.01.51-2.13.77-3.34.77-.98,0-1.9-.16-2.75-.48-.84-.33-1.61-.81-2.3-1.44-.69-.64-1.28-1.41-1.77-2.31-.48-.92-.85-1.95-1.12-3.11-.27-1.16-.41-2.43-.41-3.83v-1.03c0-1.74.2-3.29.61-4.66.42-1.38.99-2.55,1.74-3.52.75-.98,1.63-1.72,2.64-2.23,1.01-.51,2.12-.77,3.34-.77.97,0,1.88.17,2.72.5.85.32,1.62.8,2.31,1.44.7.64,1.29,1.41,1.77,2.33.49.91.87,1.94,1.12,3.09s.39,2.43.39,3.81ZM133.53,22.22v-1.06c0-.94-.05-1.79-.16-2.56-.1-.77-.26-1.45-.47-2.03-.21-.58-.46-1.07-.76-1.47-.3-.4-.65-.69-1.03-.89-.38-.21-.81-.31-1.28-.31-.59,0-1.12.16-1.58.47-.46.31-.85.78-1.17,1.39-.32.61-.57,1.38-.73,2.28-.16.9-.24,1.94-.24,3.12v1.06c0,.95.05,1.81.16,2.58.1.77.26,1.45.47,2.05.21.58.46,1.08.75,1.48.3.4.65.7,1.05.91.4.2.83.3,1.31.3.59,0,1.12-.16,1.58-.47.46-.32.84-.79,1.14-1.41.31-.61.55-1.38.72-2.28.17-.92.25-1.97.25-3.16ZM157.56,10.33v22.75h-4.42l-7.14-14.23v14.23h-4.34V10.33h4.36l7.2,14.39v-14.39h4.34ZM176.7,21.12v9.38c-.32.34-.8.74-1.42,1.2-.61.45-1.42.84-2.42,1.19-.99.33-2.2.5-3.62.5-1.26,0-2.41-.2-3.44-.59-1.02-.4-1.9-.99-2.64-1.8-.73-.81-1.29-1.82-1.67-3.03-.38-1.22-.58-2.66-.58-4.33v-3.88c0-1.65.18-3.08.55-4.3.38-1.23.92-2.25,1.62-3.06.71-.81,1.55-1.42,2.53-1.81.99-.4,2.11-.59,3.34-.59,1.71,0,3.11.29,4.2.86,1.1.57,1.94,1.42,2.5,2.55.57,1.12.92,2.51,1.03,4.14h-4.42c-.07-.96-.24-1.71-.49-2.25-.24-.54-.58-.93-1.01-1.16-.44-.24-1.01-.36-1.7-.36-.6,0-1.13.11-1.58.33-.45.21-.82.55-1.12,1.03-.3.48-.53,1.09-.67,1.84-.15.75-.22,1.67-.22,2.75v3.91c0,1.07.08,1.99.25,2.75.17.76.41,1.38.73,1.86.33.48.75.83,1.25,1.05.51.21,1.11.31,1.8.31.55,0,.99-.06,1.33-.17.33-.11.6-.23.8-.36.21-.14.38-.24.52-.31v-4.19h-3.27v-3.45h7.83ZM189,10.33h4.02l4.64,15.56,4.62-15.56h3.55l-6.47,22.75h-3.42l-6.94-22.75ZM187.38,10.33h3.83l.59,15v7.75h-4.42V10.33ZM204.08,10.33h3.84v22.75h-4.41v-7.75l.56-15ZM220.17,14.39l-4.89,18.69h-4.83l7.11-22.75h3.02l-.41,4.06ZM224.03,33.08l-4.92-18.69-.45-4.06h3.06l7.17,22.75h-4.86ZM224.2,24.59v3.8h-10.26v-3.8h10.26ZM217.17,36.64c0-.62.23-1.15.69-1.56.46-.41,1.07-.61,1.84-.61s1.37.2,1.83.61c.46.42.69.94.69,1.56s-.23,1.13-.69,1.55c-.46.42-1.07.62-1.83.62s-1.39-.21-1.84-.62c-.46-.42-.69-.93-.69-1.55ZM235.81,10.33v22.75h-4.55V10.33h4.55ZM253.5,33.08h-4.02l.03-3.78h3.98c1.1,0,1.96-.2,2.58-.59.61-.4,1.05-1.02,1.3-1.88.26-.85.39-1.97.39-3.36v-3.55c0-1.05-.07-1.94-.2-2.67-.14-.74-.36-1.33-.69-1.78-.32-.46-.76-.8-1.3-1.02-.54-.22-1.21-.33-2.02-.33h-4.16v-3.8h4.16c1.31,0,2.51.21,3.58.64,1.07.43,1.99,1.05,2.77,1.88.77.81,1.36,1.82,1.78,3.02.42,1.2.62,2.56.62,4.09v3.52c0,1.54-.21,2.91-.62,4.09-.42,1.19-1.01,2.19-1.78,3.02-.76.81-1.68,1.43-2.77,1.86-1.08.43-2.3.64-3.64.64ZM252.14,10.33v22.75h-4.58V10.33h4.58ZM255.03,20.19v2.84h-9.47v-2.84h9.47ZM270.41,10.33v22.75h-4.55V10.33h4.55ZM287.36,29.3v3.78h-9.89v-3.78h9.89ZM278.89,10.33v22.75h-4.58V10.33h4.58ZM286.03,19.55v3.67h-8.56v-3.67h8.56ZM287.33,10.33v3.8h-9.86v-3.8h9.86ZM282.41,4.17l4.11,4.36v.19h-3.41l-1.95-2.23-1.95,2.23h-3.36v-.22l4.06-4.33h2.5ZM278.66,36.59c0-.62.23-1.15.69-1.56.46-.41,1.07-.61,1.84-.61s1.37.2,1.83.61c.46.42.69.94.69,1.56s-.23,1.13-.69,1.55c-.46.42-1.07.62-1.83.62s-1.39-.21-1.84-.62c-.46-.42-.69-.93-.69-1.55ZM305.94,10.33v22.75h-4.42l-7.14-14.23v14.23h-4.34V10.33h4.36l7.2,14.39v-14.39h4.34ZM325.12,10.33v22.75h-4.55V10.33h4.55ZM330.78,10.33v3.8h-15.75v-3.8h15.75ZM350.67,9.06h2.88c0,1.54-.18,2.86-.53,3.95-.34,1.08-.94,1.91-1.8,2.48-.85.57-2.04.86-3.56.86v-2.47c.94,0,1.61-.19,2.03-.58.43-.39.7-.94.81-1.66.11-.72.17-1.58.17-2.59ZM343.66,10.33h4.56v15c0,1.75-.32,3.23-.97,4.44-.64,1.2-1.52,2.1-2.64,2.72-1.12.6-2.41.91-3.86.91s-2.76-.3-3.89-.91c-1.14-.61-2.02-1.52-2.66-2.72-.62-1.21-.94-2.69-.94-4.44v-15h4.56v15c0,.99.11,1.8.33,2.44.23.64.56,1.1.98,1.41.44.29.97.44,1.61.44s1.18-.15,1.59-.44c.43-.3.75-.77.97-1.41.23-.64.34-1.45.34-2.44v-15ZM343.05,8.3h-3.27l-.22-2.09c.4-.03.71-.08.95-.16.25-.08.43-.19.55-.33.11-.15.17-.33.17-.55s-.04-.38-.11-.52c-.07-.15-.18-.26-.33-.33-.15-.08-.32-.14-.52-.17s-.42-.05-.67-.05l.09-2.11c.86,0,1.62.07,2.27.2.66.14,1.2.33,1.62.59.44.26.76.58.97.97.22.38.33.8.33,1.28,0,.71-.19,1.24-.58,1.59-.39.34-.8.56-1.25.64l-.02,1.02Z"/>
      </g>
    </mask>
  </defs>
  <path class="st2" d="M12.31,27.09c0-.41-.04-.78-.11-1.11-.07-.33-.23-.64-.47-.92-.23-.28-.57-.56-1.02-.84-.44-.28-1.01-.57-1.72-.88-.84-.35-1.66-.73-2.45-1.12-.79-.41-1.51-.88-2.14-1.41-.64-.53-1.14-1.16-1.52-1.88-.36-.73-.55-1.58-.55-2.56s.17-1.83.52-2.61c.35-.78.85-1.45,1.5-2,.65-.56,1.4-.99,2.27-1.3.88-.3,1.85-.45,2.92-.45,1.46,0,2.72.3,3.78.91,1.07.6,1.9,1.43,2.48,2.48.59,1.05.89,2.26.89,3.62h-4.56c0-.65-.09-1.21-.28-1.7-.18-.5-.46-.89-.86-1.17-.4-.28-.91-.42-1.53-.42-.58,0-1.07.12-1.45.36-.38.23-.66.55-.84.95-.18.4-.27.84-.27,1.34,0,.38.09.71.27,1.02.19.29.44.56.77.8.32.23.7.45,1.14.67.45.22.94.43,1.47.64,1.03.41,1.94.85,2.73,1.34.79.48,1.45,1.02,1.98,1.62.53.59.93,1.27,1.2,2.02.27.75.41,1.6.41,2.56s-.17,1.81-.5,2.59c-.32.77-.8,1.44-1.42,2-.62.55-1.38.98-2.27,1.28-.88.3-1.85.45-2.94.45s-2.05-.15-2.98-.44c-.94-.3-1.77-.76-2.48-1.36-.71-.61-1.27-1.39-1.67-2.33-.41-.95-.61-2.07-.61-3.36h4.58c0,.69.07,1.28.2,1.77.14.48.34.86.62,1.16.28.28.62.49,1.03.64.42.14.89.2,1.42.2.6,0,1.08-.11,1.44-.34.36-.23.62-.54.78-.92.16-.39.23-.82.23-1.31ZM28.2,14.39l-4.89,18.69h-4.83l7.11-22.75h3.02l-.41,4.06ZM32.06,33.08l-4.92-18.69-.45-4.06h3.06l7.17,22.75h-4.86ZM32.23,24.59v3.8h-10.27v-3.8h10.27ZM26.88,4.23l3.09,4.83h-3.7l-4.33-4.83h4.94ZM55,10.33v22.75h-4.42l-7.14-14.23v14.23h-4.34V10.33h4.36l7.2,14.39v-14.39h4.34ZM74.19,10.33v22.75h-4.55V10.33h4.55ZM79.84,10.33v3.8h-15.75v-3.8h15.75ZM95.11,19.55v3.78h-9.33v-3.78h9.33ZM87.08,10.33v22.75h-4.58V10.33h4.58ZM98.42,10.33v22.75h-4.53V10.33h4.53ZM119.39,9.06h2.88c0,1.54-.18,2.86-.53,3.95-.34,1.08-.94,1.91-1.8,2.48-.86.57-2.04.86-3.56.86v-2.47c.94,0,1.61-.19,2.03-.58.43-.39.7-.94.81-1.66.11-.72.17-1.58.17-2.59ZM112.38,10.33h4.56v15c0,1.75-.32,3.23-.97,4.44-.64,1.2-1.52,2.1-2.64,2.72-1.12.6-2.41.91-3.86.91s-2.76-.3-3.89-.91c-1.14-.61-2.02-1.52-2.66-2.72-.62-1.21-.94-2.69-.94-4.44v-15h4.56v15c0,.99.11,1.8.33,2.44.23.64.56,1.1.98,1.41.44.29.97.44,1.61.44s1.18-.15,1.59-.44c.43-.3.75-.77.97-1.41.23-.64.34-1.45.34-2.44v-15ZM137.02,8.59h2.94c0,1.47-.19,2.72-.56,3.75-.37,1.03-.92,1.82-1.67,2.36-.74.54-1.69.81-2.84.81v-2.47c.55,0,.98-.18,1.3-.53.31-.35.53-.86.66-1.53.12-.67.19-1.46.19-2.39ZM138.14,21.19v1.03c0,1.73-.2,3.29-.61,4.67-.41,1.39-.98,2.56-1.72,3.53-.74.96-1.61,1.69-2.62,2.2-1.01.51-2.13.77-3.34.77-.98,0-1.9-.16-2.75-.48-.84-.33-1.61-.81-2.3-1.44-.69-.64-1.28-1.41-1.77-2.31-.48-.92-.85-1.95-1.12-3.11-.27-1.16-.41-2.43-.41-3.83v-1.03c0-1.74.2-3.29.61-4.66.42-1.38.99-2.55,1.74-3.52.75-.98,1.63-1.72,2.64-2.23,1.01-.51,2.12-.77,3.34-.77.97,0,1.88.17,2.72.5.85.32,1.62.8,2.31,1.44.7.64,1.29,1.41,1.77,2.33.49.91.87,1.94,1.12,3.09s.39,2.43.39,3.81ZM133.53,22.22v-1.06c0-.94-.05-1.79-.16-2.56-.1-.77-.26-1.45-.47-2.03-.21-.58-.46-1.07-.76-1.47-.3-.4-.65-.69-1.03-.89-.38-.21-.81-.31-1.28-.31-.59,0-1.12.16-1.58.47-.46.31-.85.78-1.17,1.39-.32.61-.57,1.38-.73,2.28-.16.9-.24,1.94-.24,3.12v1.06c0,.95.05,1.81.16,2.58.1.77.26,1.45.47,2.05.21.58.46,1.08.75,1.48.3.4.65.7,1.05.91.4.2.83.3,1.31.3.59,0,1.12-.16,1.58-.47.46-.32.84-.79,1.14-1.41.31-.61.55-1.38.72-2.28.17-.92.25-1.97.25-3.16ZM157.56,10.33v22.75h-4.42l-7.14-14.23v14.23h-4.34V10.33h4.36l7.2,14.39v-14.39h4.34ZM176.7,21.12v9.38c-.32.34-.8.74-1.42,1.2-.61.45-1.42.84-2.42,1.19-.99.33-2.2.5-3.62.5-1.26,0-2.41-.2-3.44-.59-1.02-.4-1.9-.99-2.64-1.8-.73-.81-1.29-1.82-1.67-3.03-.38-1.22-.58-2.66-.58-4.33v-3.88c0-1.65.18-3.08.55-4.3.38-1.23.92-2.25,1.62-3.06.71-.81,1.55-1.42,2.53-1.81.99-.4,2.11-.59,3.34-.59,1.71,0,3.11.29,4.2.86,1.1.57,1.94,1.42,2.5,2.55.57,1.12.92,2.51,1.03,4.14h-4.42c-.07-.96-.24-1.71-.49-2.25-.24-.54-.58-.93-1.01-1.16-.44-.24-1.01-.36-1.7-.36-.6,0-1.13.11-1.58.33-.45.21-.82.55-1.12,1.03-.3.48-.53,1.09-.67,1.84-.15.75-.22,1.67-.22,2.75v3.91c0,1.07.08,1.99.25,2.75.17.76.41,1.38.73,1.86.33.48.75.83,1.25,1.05.51.21,1.11.31,1.8.31.55,0,.99-.06,1.33-.17.33-.11.6-.23.8-.36.21-.14.38-.24.52-.31v-4.19h-3.27v-3.45h7.83ZM189,10.33h4.02l4.64,15.56,4.62-15.56h3.55l-6.47,22.75h-3.42l-6.94-22.75ZM187.38,10.33h3.83l.59,15v7.75h-4.42V10.33ZM204.08,10.33h3.84v22.75h-4.41v-7.75l.56-15ZM220.17,14.39l-4.89,18.69h-4.83l7.11-22.75h3.02l-.41,4.06ZM224.03,33.08l-4.92-18.69-.45-4.06h3.06l7.17,22.75h-4.86ZM224.2,24.59v3.8h-10.26v-3.8h10.26ZM217.17,36.64c0-.62.23-1.15.69-1.56.46-.41,1.07-.61,1.84-.61s1.37.2,1.83.61c.46.42.69.94.69,1.56s-.23,1.13-.69,1.55c-.46.42-1.07.62-1.83.62s-1.39-.21-1.84-.62c-.46-.42-.69-.93-.69-1.55ZM235.81,10.33v22.75h-4.55V10.33h4.55ZM253.5,33.08h-4.02l.03-3.78h3.98c1.1,0,1.96-.2,2.58-.59.61-.4,1.05-1.02,1.3-1.88.26-.85.39-1.97.39-3.36v-3.55c0-1.05-.07-1.94-.2-2.67-.14-.74-.36-1.33-.69-1.78-.32-.46-.76-.8-1.3-1.02-.54-.22-1.21-.33-2.02-.33h-4.16v-3.8h4.16c1.31,0,2.51.21,3.58.64,1.07.43,1.99,1.05,2.77,1.88.77.81,1.36,1.82,1.78,3.02.42,1.2.62,2.56.62,4.09v3.52c0,1.54-.21,2.91-.62,4.09-.42,1.19-1.01,2.19-1.78,3.02-.76.81-1.68,1.43-2.77,1.86-1.08.43-2.3.64-3.64.64ZM252.14,10.33v22.75h-4.58V10.33h4.58ZM255.03,20.19v2.84h-9.47v-2.84h9.47ZM270.41,10.33v22.75h-4.55V10.33h4.55ZM287.36,29.3v3.78h-9.89v-3.78h9.89ZM278.89,10.33v22.75h-4.58V10.33h4.58ZM286.03,19.55v3.67h-8.56v-3.67h8.56ZM287.33,10.33v3.8h-9.86v-3.8h9.86ZM282.41,4.17l4.11,4.36v.19h-3.41l-1.95-2.23-1.95,2.23h-3.36v-.22l4.06-4.33h2.5ZM278.66,36.59c0-.62.23-1.15.69-1.56.46-.41,1.07-.61,1.84-.61s1.37.2,1.83.61c.46.42.69.94.69,1.56s-.23,1.13-.69,1.55c-.46.42-1.07.62-1.83.62s-1.39-.21-1.84-.62c-.46-.42-.69-.93-.69-1.55ZM305.94,10.33v22.75h-4.42l-7.14-14.23v14.23h-4.34V10.33h4.36l7.2,14.39v-14.39h4.34ZM325.12,10.33v22.75h-4.55V10.33h4.55ZM330.78,10.33v3.8h-15.75v-3.8h15.75ZM350.67,9.06h2.88c0,1.54-.18,2.86-.53,3.95-.34,1.08-.94,1.91-1.8,2.48-.85.57-2.04.86-3.56.86v-2.47c.94,0,1.61-.19,2.03-.58.43-.39.7-.94.81-1.66.11-.72.17-1.58.17-2.59ZM343.66,10.33h4.56v15c0,1.75-.32,3.23-.97,4.44-.64,1.2-1.52,2.1-2.64,2.72-1.12.6-2.41.91-3.86.91s-2.76-.3-3.89-.91c-1.14-.61-2.02-1.52-2.66-2.72-.62-1.21-.94-2.69-.94-4.44v-15h4.56v15c0,.99.11,1.8.33,2.44.23.64.56,1.1.98,1.41.44.29.97.44,1.61.44s1.18-.15,1.59-.44c.43-.3.75-.77.97-1.41.23-.64.34-1.45.34-2.44v-15ZM343.05,8.3h-3.27l-.22-2.09c.4-.03.71-.08.95-.16.25-.08.43-.19.55-.33.11-.15.17-.33.17-.55s-.04-.38-.11-.52c-.07-.15-.18-.26-.33-.33-.15-.08-.32-.14-.52-.17s-.42-.05-.67-.05l.09-2.11c.86,0,1.62.07,2.27.2.66.14,1.2.33,1.62.59.44.26.76.58.97.97.22.38.33.8.33,1.28,0,.71-.19,1.24-.58,1.59-.39.34-.8.56-1.25.64l-.02,1.02Z"/>
  <g class="st0">
    <path class="st1" d="M11.73,25.06l-1.55,1.26v.02s.03.02.03.02l1.52-1.3ZM10.72,24.22l-1.08,1.68h0s0,.01,0,.01l1.06-1.69ZM9,23.34l.78-1.84h-.01s-.77,1.84-.77,1.84ZM6.55,22.22l-.91,1.78h0s0,0,0,0l.89-1.79ZM4.41,20.81l-1.28,1.53,1.28-1.53ZM2.89,18.94l-1.79.89v.02s.02.02.02.02l1.77-.93ZM2.86,13.77l-1.82-.83h0s0,.02,0,.02l1.83.81ZM4.36,11.77l1.3,1.52h0s0-.01,0-.01l-1.31-1.51ZM6.62,10.47l-.65-1.89h0s.66,1.89.66,1.89ZM13.33,10.92l-.99,1.74h0s.98-1.74.98-1.74ZM15.81,13.41l-1.75.97h0s0,.01,0,.01l1.74-.98ZM16.7,17.03v2h2v-2h-2ZM12.14,17.03h-2v2h2v-2ZM11.86,15.33l-1.89.67v.02s.02.02.02.02l1.87-.72ZM8.02,14.09l1.04,1.71h0s0,0,0,0l-1.06-1.7ZM7.17,15.05l-1.82-.84h0s0,.02,0,.02l1.83.82ZM7.17,17.41l-1.73,1.01.02.04.02.03,1.68-1.08ZM7.94,18.2l-1.19,1.61h.02s.02.02.02.02l1.16-1.63ZM9.08,18.88l-.89,1.79h0s0,0,0,0l.88-1.8ZM10.55,19.52l.73-1.86h0s-.73,1.86-.73,1.86ZM13.28,20.86l-1.05,1.7h0s0,.01,0,.01l1.04-1.71ZM15.27,22.48l-1.5,1.32h0s0,.01,0,.01l1.49-1.33ZM16.38,29.66l-1.84-.78h0s1.84.78,1.84.78ZM14.95,31.66l1.32,1.5h0s0-.01,0-.01l-1.34-1.49ZM12.69,32.94l-.65-1.89h0s.65,1.89.65,1.89ZM6.77,32.95l-.61,1.9h0s0,0,0,0l.59-1.91ZM4.28,31.59l-1.31,1.51h.01s.01.02.01.02l1.29-1.53ZM2.61,29.27l-1.84.79h0s1.84-.79,1.84-.79ZM2,25.91v-2H0v2h2ZM6.58,25.91h2v-2h-2v2ZM6.78,27.67l-1.93.53h0s1.92-.53,1.92-.53ZM7.41,28.83l-1.44,1.39h.01s.01.03.01.03l1.41-1.41ZM8.44,29.47l-.68,1.88h.03s.03.02.03.02l.62-1.9ZM11.3,29.33l-1.06-1.69h-.01s-.01.01-.01.01l1.09,1.68ZM12.31,27.09h2c0-.52-.05-1.04-.16-1.54l-1.95.43-1.95.43c.04.17.06.39.06.68h2ZM12.2,25.98l1.95-.43c-.15-.68-.47-1.28-.9-1.79l-1.52,1.3-1.52,1.3s.03.05.04.05c0,0,0,0,0,0,0,0,0,0,0,0l1.95-.43ZM11.73,25.06l1.55-1.26c-.41-.51-.95-.93-1.5-1.27l-1.06,1.69-1.06,1.69c.34.21.48.36.53.41l1.55-1.26ZM10.72,24.22l1.08-1.68c-.57-.36-1.25-.7-2.02-1.03l-.78,1.84-.78,1.84c.65.28,1.11.52,1.42.72l1.08-1.68ZM9,23.34l.77-1.84c-.8-.34-1.58-.69-2.33-1.07l-.89,1.79-.89,1.79c.83.42,1.69.81,2.57,1.18l.77-1.84ZM6.55,22.22l.91-1.78c-.67-.34-1.26-.73-1.77-1.16l-1.28,1.53-1.28,1.53c.76.63,1.6,1.18,2.51,1.65l.91-1.78ZM4.41,20.81l1.28-1.53c-.44-.37-.77-.79-1.03-1.27l-1.77.93-1.77.93c.5.96,1.17,1.79,2.01,2.48l1.28-1.53ZM2.89,18.94l1.79-.89c-.2-.4-.34-.94-.34-1.67H.34c0,1.23.23,2.4.76,3.46l1.79-.89ZM2.34,16.38h2c0-.72.13-1.31.35-1.8l-1.83-.81-1.83-.81c-.47,1.06-.68,2.21-.68,3.41h2ZM2.86,13.77l1.82.83c.23-.52.56-.95.98-1.31l-1.3-1.52-1.3-1.52c-.87.74-1.55,1.65-2.02,2.69l1.82.83ZM4.36,11.77l1.31,1.51c.44-.38.97-.69,1.61-.92l-.66-1.89-.66-1.89c-1.09.38-2.07.94-2.92,1.68l1.31,1.51ZM6.62,10.47l.65,1.89c.63-.22,1.38-.34,2.27-.34v-4c-1.26,0-2.46.18-3.57.56l.65,1.89ZM9.55,10.02v2c1.18,0,2.08.24,2.79.64l.99-1.74.99-1.74c-1.42-.81-3.03-1.17-4.77-1.17v2ZM13.33,10.92l-.98,1.74c.76.43,1.32.99,1.72,1.71l1.75-.97,1.75-.97c-.77-1.38-1.86-2.48-3.25-3.26l-.98,1.74ZM15.81,13.41l-1.74.98c.4.71.63,1.58.63,2.64h4c0-1.66-.36-3.22-1.15-4.61l-1.74.98ZM16.7,17.03v-2h-4.56v4h4.56v-2ZM12.14,17.03h2c0-.84-.12-1.65-.41-2.42l-1.87.72-1.87.72c.08.22.15.53.15.99h2ZM11.86,15.33l1.89-.67c-.3-.85-.82-1.59-1.59-2.13l-1.16,1.63-1.16,1.63s.08.06.13.21l1.89-.67ZM11,14.16l1.16-1.63c-.82-.58-1.77-.79-2.69-.79v4c.33,0,.4.07.37.05l1.16-1.63ZM9.47,13.73v-2c-.85,0-1.73.18-2.51.66l1.06,1.7,1.06,1.7s0,0,0,0c0,0,0,0,.01,0,.01,0,.03-.01.06-.02.06-.02.16-.03.32-.03v-2ZM8.02,14.09l-1.04-1.71c-.72.44-1.27,1.06-1.62,1.82l1.82.84,1.82.84s.03-.05.03-.06c0,0,.01-.01.04-.03l-1.04-1.71ZM7.17,15.05l-1.83-.82c-.31.69-.44,1.42-.44,2.16h4c0-.26.05-.42.09-.53l-1.83-.82ZM6.91,16.39h-2c0,.7.17,1.4.54,2.03l1.73-1.01,1.73-1.01s0,0,0,.01c0,0,0,0,0,.01,0,0,0,0,0,0,0,0,0-.01,0-.03h-2ZM7.17,17.41l-1.68,1.08c.34.52.77.96,1.26,1.32l1.19-1.61,1.19-1.61c-.16-.12-.24-.21-.27-.27l-1.68,1.08ZM7.94,18.2l-1.16,1.63c.42.3.89.58,1.4.83l.89-1.79.89-1.79c-.37-.18-.65-.36-.88-.51l-1.16,1.63ZM9.08,18.88l-.88,1.8c.5.25,1.04.48,1.62.71l.73-1.86.73-1.86c-.49-.19-.93-.38-1.32-.58l-.88,1.8ZM10.55,19.52l-.73,1.86c.94.37,1.74.77,2.42,1.18l1.05-1.7,1.05-1.7c-.91-.56-1.93-1.06-3.05-1.5l-.73,1.86ZM13.28,20.86l-1.04,1.71c.64.39,1.14.8,1.52,1.23l1.5-1.32,1.5-1.32c-.68-.78-1.51-1.45-2.45-2.02l-1.04,1.71ZM15.27,22.48l-1.49,1.33c.36.4.63.85.81,1.36l1.88-.68,1.88-.68c-.36-.99-.89-1.88-1.59-2.67l-1.49,1.33ZM16.47,24.5l-1.88.68c.18.49.29,1.11.29,1.88h4c0-1.14-.16-2.24-.53-3.24l-1.88.68ZM16.88,27.06h-2c0,.71-.12,1.3-.34,1.81l1.84.78,1.84.78c.45-1.06.66-2.19.66-3.38h-2ZM16.38,29.66l-1.84-.77c-.21.5-.51.92-.92,1.29l1.34,1.49,1.34,1.49c.84-.76,1.49-1.67,1.93-2.71l-1.84-.77ZM14.95,31.66l-1.32-1.5c-.4.36-.92.66-1.59.89l.65,1.89.65,1.89c1.1-.38,2.1-.93,2.94-1.68l-1.32-1.5ZM12.69,32.94l-.65-1.89c-.63.22-1.39.34-2.28.34v4c1.27,0,2.47-.18,3.59-.56l-.65-1.89ZM9.75,33.39v-2c-.87,0-1.66-.12-2.39-.35l-.59,1.91-.59,1.91c1.14.36,2.34.53,3.58.53v-2ZM6.77,32.95l.61-1.9c-.7-.23-1.3-.56-1.81-.99l-1.29,1.53-1.29,1.53c.93.78,1.99,1.35,3.16,1.73l.61-1.9ZM4.28,31.59l1.31-1.51c-.46-.4-.85-.92-1.15-1.61l-1.84.8-1.84.8c.51,1.19,1.24,2.22,2.2,3.04l1.31-1.51ZM2.61,29.27l1.84-.79c-.28-.64-.45-1.48-.45-2.57H0c0,1.5.23,2.9.77,4.15l1.84-.79ZM2,25.91v2h4.58v-4H2v2ZM6.58,25.91h-2c0,.81.08,1.59.28,2.3l1.93-.53,1.93-.53c-.07-.27-.13-.67-.13-1.23h-2ZM6.78,27.67l-1.92.54c.2.72.55,1.42,1.11,2l1.44-1.39,1.44-1.39s-.07-.08-.14-.31l-1.92.54ZM7.41,28.83l-1.41,1.41c.51.51,1.11.87,1.77,1.11l.68-1.88.68-1.88c-.15-.05-.24-.12-.29-.17l-1.41,1.41ZM8.44,29.47l-.62,1.9c.65.21,1.34.3,2.04.3v-4c-.36,0-.62-.05-.8-.11l-.62,1.9ZM9.86,29.67v2c.83,0,1.73-.15,2.52-.66l-1.09-1.68-1.09-1.68s.05-.02,0,0c-.06.01-.17.03-.35.03v2ZM11.3,29.33l1.06,1.69c.71-.44,1.25-1.07,1.57-1.86l-1.85-.75-1.85-.75s0,0,0,0c0,0,0-.01.01-.02,0,0,0,0,0,0,0,0,0,0,0,0,0,0,0,0,0,0,0,0,0,0,0,0,0,0,0,0,0,0,0,0,0,0-.01,0l1.06,1.69ZM12.08,28.41l1.85.75c.27-.66.38-1.36.38-2.06h-4c0,.28-.04.45-.09.56l1.85.75ZM28.2,14.39l1.93.51.04-.15.02-.16-1.99-.2ZM23.31,33.08v2h1.54l.39-1.49-1.93-.51ZM18.48,33.08l-1.91-.6-.81,2.6h2.72v-2ZM25.59,10.33v-2h-1.47l-.44,1.4,1.91.6ZM28.61,10.33l1.99.2.22-2.2h-2.21v2ZM32.06,33.08l-1.93.51.39,1.49h1.54v-2ZM27.14,14.39l-1.99.22.02.15.04.14,1.93-.51ZM26.69,10.33v-2h-2.24l.25,2.22,1.99-.22ZM29.75,10.33l1.91-.6-.44-1.4h-1.47v2ZM36.92,33.08v2h2.73l-.82-2.6-1.91.6ZM32.23,24.59h2v-2h-2v2ZM32.23,28.39v2h2v-2h-2ZM21.97,28.39h-2v2h2v-2ZM21.97,24.59v-2h-2v2h2ZM26.88,4.23l1.68-1.08-.59-.92h-1.09v2ZM29.97,9.06v2h3.66l-1.97-3.08-1.68,1.08ZM26.27,9.06l-1.49,1.34.6.66h.89v-2ZM21.94,4.23v-2h-4.48l2.99,3.33,1.49-1.33ZM28.2,14.39l-1.93-.51-4.89,18.69,1.93.51,1.93.51,4.89-18.69-1.93-.51ZM23.31,33.08v-2h-4.83v4h4.83v-2ZM18.48,33.08l1.91.6,7.11-22.75-1.91-.6-1.91-.6-7.11,22.75,1.91.6ZM25.59,10.33v2h3.02v-4h-3.02v2ZM28.61,10.33l-1.99-.2-.41,4.06,1.99.2,1.99.2.41-4.06-1.99-.2ZM32.06,33.08l1.93-.51-4.92-18.69-1.93.51-1.93.51,4.92,18.69,1.93-.51ZM27.14,14.39l1.99-.22-.45-4.06-1.99.22-1.99.22.45,4.06,1.99-.22ZM26.69,10.33v2h3.06v-4h-3.06v2ZM29.75,10.33l-1.91.6,7.17,22.75,1.91-.6,1.91-.6-7.17-22.75-1.91.6ZM36.92,33.08v-2h-4.86v4h4.86v-2ZM32.23,24.59h-2v3.8h4v-3.8h-2ZM32.23,28.39v-2h-10.27v4h10.27v-2ZM21.97,28.39h2v-3.8h-4v3.8h2ZM21.97,24.59v2h10.27v-4h-10.27v2ZM26.88,4.23l-1.68,1.08,3.09,4.83,1.68-1.08,1.68-1.08-3.09-4.83-1.68,1.08ZM29.97,9.06v-2h-3.7v4h3.7v-2ZM26.27,9.06l1.49-1.34-4.33-4.83-1.49,1.33-1.49,1.33,4.33,4.83,1.49-1.34ZM21.94,4.23v2h4.94v-4h-4.94v2ZM55,10.33h2v-2h-2v2ZM55,33.08v2h2v-2h-2ZM50.58,33.08l-1.79.9.55,1.1h1.23v-2ZM43.44,18.84l1.79-.9-3.79.9h2ZM43.44,33.08v2h2v-2h-2ZM39.09,33.08h-2v2h2v-2ZM39.09,10.33v-2h-2v2h2ZM43.45,10.33l1.79-.9-.55-1.1h-1.24v2ZM50.66,24.72l-1.79.9,3.79-.9h-2ZM50.66,10.33v-2h-2v2h2ZM55,10.33h-2v22.75h4V10.33h-2ZM55,33.08v-2h-4.42v4h4.42v-2ZM50.58,33.08l1.79-.9-7.14-14.23-1.79.9-1.79.9,7.14,14.23,1.79-.9ZM43.44,18.84h-2v14.23h4v-14.23h-2ZM43.44,33.08v-2h-4.34v4h4.34v-2ZM39.09,33.08h2V10.33h-4v22.75h2ZM39.09,10.33v2h4.36v-4h-4.36v2ZM43.45,10.33l-1.79.9,7.2,14.39,1.79-.9,1.79-.9-7.2-14.39-1.79.9ZM50.66,24.72h2v-14.39h-4v14.39h2ZM50.66,10.33v2h4.34v-4h-4.34v2ZM74.19,10.33h2v-2h-2v2ZM74.19,33.08v2h2v-2h-2ZM69.64,33.08h-2v2h2v-2ZM69.64,10.33v-2h-2v2h2ZM79.84,10.33h2v-2h-2v2ZM79.84,14.12v2h2v-2h-2ZM64.09,14.12h-2v2h2v-2ZM64.09,10.33v-2h-2v2h2ZM74.19,10.33h-2v22.75h4V10.33h-2ZM74.19,33.08v-2h-4.55v4h4.55v-2ZM69.64,33.08h2V10.33h-4v22.75h2ZM69.64,10.33v2h4.55v-4h-4.55v2ZM79.84,10.33h-2v3.8h4v-3.8h-2ZM79.84,14.12v-2h-15.75v4h15.75v-2ZM64.09,14.12h2v-3.8h-4v3.8h2ZM64.09,10.33v2h15.75v-4h-15.75v2ZM95.11,19.55h2v-2h-2v2ZM95.11,23.33v2h2v-2h-2ZM85.78,23.33h-2v2h2v-2ZM85.78,19.55v-2h-2v2h2ZM87.08,10.33h2v-2h-2v2ZM87.08,33.08v2h2v-2h-2ZM82.5,33.08h-2v2h2v-2ZM82.5,10.33v-2h-2v2h2ZM98.42,10.33h2v-2h-2v2ZM98.42,33.08v2h2v-2h-2ZM93.89,33.08h-2v2h2v-2ZM93.89,10.33v-2h-2v2h2ZM95.11,19.55h-2v3.78h4v-3.78h-2ZM95.11,23.33v-2h-9.33v4h9.33v-2ZM85.78,23.33h2v-3.78h-4v3.78h2ZM85.78,19.55v2h9.33v-4h-9.33v2ZM87.08,10.33h-2v22.75h4V10.33h-2ZM87.08,33.08v-2h-4.58v4h4.58v-2ZM82.5,33.08h2V10.33h-4v22.75h2ZM82.5,10.33v2h4.58v-4h-4.58v2ZM98.42,10.33h-2v22.75h4V10.33h-2ZM98.42,33.08v-2h-4.53v4h4.53v-2ZM93.89,33.08h2V10.33h-4v22.75h2ZM93.89,10.33v2h4.53v-4h-4.53v2ZM119.39,9.06v-2h-2v2h2ZM122.27,9.06h2v-2h-2v2ZM121.73,13.02l-1.9-.62h0s1.91.62,1.91.62ZM116.38,16.36h-2v2h2v-2ZM116.38,13.89v-2h-2v2h2ZM118.41,13.31l-1.34-1.48h0s0,.02,0,.02l1.36,1.47ZM112.38,10.33v-2h-2v2h2ZM116.94,10.33h2v-2h-2v2ZM115.97,29.77l-1.76-.94h0s1.77.94,1.77.94ZM113.33,32.48l.95,1.76h0s0,0,0,0l-.96-1.76ZM105.58,32.48l-.95,1.76h0s0,0,0,0l.94-1.77ZM102.92,29.77l-1.78.92h0s0,.02,0,.02l1.77-.94ZM101.98,10.33v-2h-2v2h2ZM106.55,10.33h2v-2h-2v2ZM106.88,27.77l-1.89.65h0s0,.03,0,.03l1.88-.68ZM107.86,29.17l-1.15,1.63.02.02.02.02,1.11-1.66ZM111.06,29.17l1.15,1.64h0s-1.16-1.64-1.16-1.64ZM112.03,27.77l-1.88-.68h0s0,.03,0,.03l1.89.65ZM119.39,9.06v2h2.88v-4h-2.88v2ZM122.27,9.06h-2c0,1.4-.16,2.5-.43,3.34l1.9.62,1.9.62c.44-1.35.63-2.88.63-4.57h-2ZM121.73,13.02l-1.91-.6c-.22.7-.57,1.13-1.01,1.43l1.12,1.66,1.11,1.66c1.27-.85,2.12-2.07,2.59-3.54l-1.91-.6ZM119.94,15.5l-1.12-1.66c-.4.27-1.14.52-2.45.52v4c1.74,0,3.37-.32,4.68-1.2l-1.11-1.66ZM116.38,16.36h2v-2.47h-4v2.47h2ZM116.38,13.89v2c1.13,0,2.43-.22,3.39-1.11l-1.36-1.47-1.36-1.47c.07-.07.1-.05,0-.02-.11.03-.32.07-.66.07v2ZM118.41,13.31l1.34,1.48c.85-.77,1.28-1.78,1.45-2.83l-1.97-.31-1.97-.31c-.06.39-.17.48-.18.49l1.34,1.48ZM119.22,11.66l1.97.31c.14-.85.2-1.83.2-2.91h-4c0,.94-.05,1.7-.15,2.28l1.97.31ZM112.38,10.33v2h4.56v-4h-4.56v2ZM116.94,10.33h-2v15h4v-15h-2ZM116.94,25.33h-2c0,1.51-.28,2.65-.73,3.49l1.76.94,1.76.94c.84-1.57,1.21-3.39,1.21-5.38h-2ZM115.97,29.77l-1.77-.94c-.46.87-1.07,1.49-1.83,1.9l.96,1.76.96,1.76c1.49-.81,2.64-2.01,3.45-3.54l-1.77-.94ZM113.33,32.48l-.95-1.76c-.8.43-1.75.67-2.91.67v4c1.73,0,3.35-.36,4.81-1.14l-.95-1.76ZM109.47,33.39v-2c-1.18,0-2.14-.24-2.95-.67l-.94,1.77-.94,1.77c1.46.78,3.09,1.14,4.83,1.14v-2ZM105.58,32.48l.95-1.76c-.77-.42-1.38-1.03-1.84-1.9l-1.77.94-1.77.94c.81,1.53,1.97,2.73,3.47,3.54l.95-1.76ZM102.92,29.77l1.78-.92c-.44-.85-.71-2-.71-3.52h-4c0,1.98.35,3.79,1.16,5.36l1.78-.92ZM101.98,25.33h2v-15h-4v15h2ZM101.98,10.33v2h4.56v-4h-4.56v2ZM106.55,10.33h-2v15h4v-15h-2ZM106.55,25.33h-2c0,1.12.12,2.17.44,3.09l1.89-.65,1.89-.65c-.12-.35-.22-.92-.22-1.79h-2ZM106.88,27.77l-1.88.68c.33.91.86,1.76,1.71,2.36l1.15-1.63,1.15-1.63s-.13-.09-.26-.45l-1.88.68ZM107.86,29.17l-1.11,1.66c.83.55,1.77.77,2.72.77v-4c-.32,0-.45-.07-.5-.1l-1.11,1.66ZM109.47,29.61v2c.94,0,1.91-.22,2.74-.8l-1.15-1.64-1.15-1.64s-.03.02-.09.04c-.07.02-.18.04-.35.04v2ZM111.06,29.17l1.16,1.63c.86-.61,1.39-1.47,1.7-2.39l-1.89-.65-1.89-.65c-.06.18-.12.28-.16.34-.04.06-.06.08-.07.08l1.15,1.63ZM112.03,27.77l1.88.68c.33-.93.46-1.99.46-3.12h-4c0,.86-.1,1.42-.22,1.76l1.88.68ZM112.38,25.33h2v-15h-4v15h2ZM137.02,8.59v-2h-2v2h2ZM139.95,8.59h2v-2h-2v2ZM139.39,12.34l-1.88-.68h0s0,.02,0,.02l1.89.67ZM137.72,14.7l-1.17-1.62h-.01s1.18,1.62,1.18,1.62ZM134.88,15.52h-2v2h2v-2ZM134.88,13.05v-2h-2v2h2ZM135.81,30.42l1.58,1.22h0s-1.59-1.22-1.59-1.22ZM127.09,32.91l-.74,1.86h.01s.01.01.01.01l.71-1.87ZM124.8,31.47l-1.36,1.47h0s0,.01,0,.01l1.34-1.48ZM123.03,29.16l-1.77.93h0s0,.02,0,.02l1.76-.95ZM122.11,16.53l-1.91-.58h0s1.92.58,1.92.58ZM123.84,13.02l-1.59-1.22h0s1.59,1.22,1.59,1.22ZM132.55,10.52l-.74,1.86h.01s.01.01.01.01l.71-1.87ZM134.86,11.95l-1.36,1.47h0s0,.01,0,.01l1.35-1.48ZM136.62,14.28l-1.77.93h0s0,.02,0,.02l1.76-.95ZM132.91,16.56l1.88-.67-1.88.67ZM131.11,14.2l-.95,1.76h.02s.02.02.02.02l.91-1.78ZM128.25,14.36l-1.13-1.65,1.13,1.65ZM126.34,18.03l-1.97-.36h0s0,.02,0,.02l1.97.34ZM126.73,26.84l-1.89.66h0s1.88-.66,1.88-.66ZM127.48,28.33l-1.62,1.17.02.02.02.02,1.59-1.21ZM128.53,29.23l-.93,1.77h.02s.02.02.02.02l.89-1.79ZM131.42,29.06l1.13,1.65h.01s.01-.02.01-.02l-1.15-1.64ZM132.56,27.66l-1.78-.91h0s0,.02,0,.02l1.79.88ZM133.28,25.38l1.97.36h0s-1.97-.36-1.97-.36ZM137.02,8.59v2h2.94v-4h-2.94v2ZM139.95,8.59h-2c0,1.31-.17,2.31-.44,3.07l1.88.68,1.88.68c.48-1.31.68-2.81.68-4.43h-2ZM139.39,12.34l-1.89-.67c-.25.72-.59,1.14-.96,1.4l1.17,1.62,1.17,1.62c1.14-.82,1.91-1.97,2.39-3.31l-1.88-.67ZM137.72,14.7l-1.18-1.61c-.32.23-.82.43-1.66.43v4c1.47,0,2.86-.35,4.02-1.2l-1.18-1.61ZM134.88,15.52h2v-2.47h-4v2.47h2ZM134.88,13.05v2c1.02,0,2.04-.35,2.8-1.21l-1.5-1.32-1.5-1.32s.05-.05.08-.07c.04-.02.07-.04.1-.06.06-.03.08-.02.02-.02v2ZM136.17,12.52l1.5,1.32c.63-.72.96-1.61,1.12-2.49l-1.97-.37-1.97-.37c-.09.46-.2.59-.19.58l1.5,1.32ZM136.83,10.98l1.97.37c.15-.82.22-1.75.22-2.76h-4c0,.84-.06,1.51-.15,2.02l1.97.37ZM138.14,21.19h-2v1.03h4v-1.03h-2ZM138.14,22.22h-2c0,1.58-.19,2.94-.53,4.11l1.92.56,1.92.56c.47-1.6.69-3.35.69-5.23h-2ZM137.53,26.89l-1.92-.56c-.35,1.19-.82,2.14-1.39,2.88l1.59,1.21,1.59,1.21c.91-1.2,1.59-2.6,2.05-4.18l-1.92-.56ZM135.81,30.42l-1.58-1.22c-.57.74-1.22,1.27-1.94,1.64l.9,1.79.9,1.79c1.29-.65,2.4-1.59,3.31-2.77l-1.58-1.22ZM133.19,32.62l-.9-1.79c-.71.36-1.51.55-2.44.55v4c1.51,0,2.93-.32,4.25-.98l-.9-1.79ZM129.84,33.39v-2c-.75,0-1.43-.12-2.04-.36l-.71,1.87-.71,1.87c1.1.41,2.25.61,3.46.61v-2ZM127.09,32.91l.74-1.86c-.61-.24-1.17-.59-1.69-1.06l-1.35,1.48-1.34,1.48c.86.78,1.83,1.39,2.91,1.82l.74-1.86ZM124.8,31.47l1.36-1.47c-.51-.47-.97-1.06-1.36-1.79l-1.76.95-1.76.95c.58,1.08,1.3,2.03,2.17,2.83l1.36-1.47ZM123.03,29.16l1.77-.93c-.39-.75-.71-1.62-.95-2.64l-1.95.46-1.95.46c.3,1.3.73,2.49,1.3,3.58l1.77-.93ZM121.91,26.05l1.95-.46c-.23-.98-.35-2.1-.35-3.37h-4c0,1.52.15,2.96.46,4.28l1.95-.46ZM121.5,22.22h2v-1.03h-4v1.03h2ZM121.5,21.19h2c0-1.59.19-2.94.53-4.09l-1.92-.57-1.92-.57c-.47,1.59-.69,3.34-.69,5.23h2ZM122.11,16.53l1.91.58c.36-1.19.84-2.13,1.41-2.88l-1.59-1.21-1.59-1.21c-.91,1.19-1.58,2.59-2.06,4.15l1.91.58ZM123.84,13.02l1.59,1.22c.58-.76,1.24-1.3,1.95-1.67l-.9-1.79-.9-1.79c-1.3.66-2.41,1.61-3.33,2.8l1.59,1.22ZM126.48,10.78l.9,1.79c.71-.36,1.51-.55,2.44-.55v-4c-1.51,0-2.93.32-4.25.98l.9,1.79ZM129.83,10.02v2c.74,0,1.39.13,1.98.36l.74-1.86.74-1.86c-1.09-.43-2.25-.64-3.45-.64v2ZM132.55,10.52l-.71,1.87c.61.23,1.16.57,1.66,1.04l1.36-1.47,1.36-1.47c-.87-.81-1.86-1.42-2.96-1.84l-.71,1.87ZM134.86,11.95l-1.35,1.48c.51.46.96,1.05,1.34,1.78l1.77-.93,1.77-.93c-.58-1.1-1.3-2.07-2.19-2.88l-1.35,1.48ZM136.62,14.28l-1.76.95c.39.72.71,1.58.93,2.58l1.95-.44,1.95-.44c-.29-1.31-.73-2.52-1.32-3.61l-1.76.95ZM137.75,17.38l-1.95.44c.22.99.34,2.11.34,3.37h4c0-1.51-.14-2.93-.44-4.25l-1.95.44ZM133.53,22.22h2v-1.06h-4v1.06h2ZM133.53,21.16h2c0-1.01-.06-1.95-.17-2.83l-1.98.27-1.98.27c.09.67.14,1.43.14,2.29h2ZM133.38,18.59l1.98-.27c-.12-.88-.3-1.69-.57-2.44l-1.88.67-1.88.67c.15.42.28.96.37,1.63l1.98-.27ZM132.91,16.56l1.88-.67c-.26-.73-.61-1.42-1.06-2.01l-1.59,1.21-1.59,1.21c.15.2.32.49.47.93l1.88-.67ZM132.14,15.09l1.59-1.21c-.46-.6-1.02-1.1-1.71-1.46l-.91,1.78-.91,1.78c.08.04.21.13.35.32l1.59-1.21ZM131.11,14.2l.95-1.76c-.7-.38-1.46-.55-2.23-.55v4c.16,0,.26.03.33.07l.95-1.76ZM129.83,13.89v-2c-.97,0-1.89.26-2.71.82l1.13,1.65,1.13,1.65c.1-.07.23-.12.45-.12v-2ZM128.25,14.36l-1.13-1.65c-.79.54-1.38,1.28-1.82,2.11l1.77.93,1.77.93c.21-.4.4-.58.53-.67l-1.13-1.65ZM127.08,15.75l-1.77-.93c-.44.84-.74,1.81-.93,2.85l1.97.36,1.97.36c.14-.77.33-1.32.54-1.71l-1.77-.93ZM126.34,18.03l-1.97-.34c-.18,1.04-.26,2.2-.26,3.47h4c0-1.1.07-2.03.21-2.78l-1.97-.34ZM126.11,21.16h-2v1.06h4v-1.06h-2ZM126.11,22.22h-2c0,1.02.06,1.97.17,2.85l1.98-.27,1.98-.27c-.09-.67-.14-1.43-.14-2.31h-2ZM126.27,24.8l-1.98.27c.12.88.3,1.69.56,2.44l1.89-.66,1.89-.66c-.15-.44-.28-.99-.37-1.65l-1.98.27ZM126.73,26.84l-1.88.67c.26.72.59,1.39,1.01,1.98l1.62-1.17,1.62-1.17c-.16-.22-.33-.54-.49-.99l-1.88.67ZM127.48,28.33l-1.59,1.21c.46.6,1.03,1.1,1.71,1.46l.93-1.77.93-1.77c-.11-.06-.24-.16-.39-.35l-1.59,1.21ZM128.53,29.23l-.89,1.79c.7.35,1.44.51,2.21.51v-4c-.19,0-.32-.04-.42-.09l-.89,1.79ZM129.84,29.53v2c.97,0,1.89-.26,2.71-.82l-1.13-1.65-1.13-1.65c-.1.07-.23.12-.45.12v2ZM131.42,29.06l1.15,1.64c.79-.55,1.37-1.31,1.78-2.16l-1.79-.88-1.79-.88c-.19.38-.37.56-.5.65l1.15,1.64ZM132.56,27.66l1.78.91c.42-.83.71-1.79.9-2.83l-1.97-.36-1.97-.36c-.14.78-.33,1.34-.53,1.74l1.78.91ZM133.28,25.38l1.97.36c.19-1.06.28-2.24.28-3.51h-4c0,1.1-.08,2.03-.22,2.8l1.97.36ZM157.56,10.33h2v-2h-2v2ZM157.56,33.08v2h2v-2h-2ZM153.14,33.08l-1.79.9.55,1.1h1.24v-2ZM146,18.84l1.79-.9-3.79.9h2ZM146,33.08v2h2v-2h-2ZM141.66,33.08h-2v2h2v-2ZM141.66,10.33v-2h-2v2h2ZM146.02,10.33l1.79-.9-.55-1.1h-1.24v2ZM153.22,24.72l-1.79.9,3.79-.9h-2ZM153.22,10.33v-2h-2v2h2ZM157.56,10.33h-2v22.75h4V10.33h-2ZM157.56,33.08v-2h-4.42v4h4.42v-2ZM153.14,33.08l1.79-.9-7.14-14.23-1.79.9-1.79.9,7.14,14.23,1.79-.9ZM146,18.84h-2v14.23h4v-14.23h-2ZM146,33.08v-2h-4.34v4h4.34v-2ZM141.66,33.08h2V10.33h-4v22.75h2ZM141.66,10.33v2h4.36v-4h-4.36v2ZM146.02,10.33l-1.79.9,7.2,14.39,1.79-.9,1.79-.9-7.2-14.39-1.79.9ZM153.22,24.72h2v-14.39h-4v14.39h2ZM153.22,10.33v2h4.34v-4h-4.34v2ZM176.7,21.12h2v-2h-2v2ZM176.7,30.5l1.46,1.37.54-.58v-.79h-2ZM175.28,31.7l1.18,1.62h0s-1.18-1.62-1.18-1.62ZM172.86,32.89l.64,1.9h.01s-.65-1.9-.65-1.9ZM165.8,32.8l-.72,1.86h0s.72-1.86.72-1.86ZM163.16,31l-1.49,1.34h0s0,.02,0,.02l1.47-1.36ZM161.48,27.97l-1.91.6h0s1.9-.6,1.9-.6ZM161.45,15.47l-1.91-.58h0s1.92.58,1.92.58ZM165.61,10.59l-.74-1.86h0s.75,1.86.75,1.86ZM173.16,10.86l-.93,1.77h0s.92-1.77.92-1.77ZM175.66,13.41l-1.79.89h0s0,.01,0,.01l1.78-.91ZM176.69,17.55v2h2.14l-.15-2.14-1.99.14ZM172.27,17.55l-2,.15.14,1.85h1.85v-2ZM171.78,15.3l-1.83.81h0s0,.03,0,.03l1.82-.84ZM170.77,14.14l-.96,1.75h.02s.02.02.02.02l.93-1.77ZM167.48,14.11l.84,1.81h.02s.02-.02.02-.02l-.88-1.8ZM166.45,28.25l-1.66,1.12h0s0,.02,0,.02l1.64-1.14ZM167.7,29.3l-.8,1.83h.02s.02.02.02.02l.76-1.85ZM171.62,29.08l1.07,1.69h.01s.01-.01.01-.01l-1.09-1.68ZM172.14,28.77l.95,1.76,1.05-.57v-1.19h-2ZM172.14,24.58h2v-2h-2v2ZM168.88,24.58h-2v2h2v-2ZM168.88,21.12v-2h-2v2h2ZM176.7,21.12h-2v9.38h4v-9.38h-2ZM176.7,30.5l-1.46-1.37c-.2.22-.57.53-1.15.96l1.18,1.61,1.18,1.61c.67-.49,1.25-.97,1.7-1.45l-1.46-1.37ZM175.28,31.7l-1.18-1.62c-.4.29-1.01.61-1.89.91l.65,1.89.65,1.89c1.12-.39,2.12-.86,2.95-1.46l-1.18-1.62ZM172.86,32.89l-.64-1.9c-.72.24-1.7.4-2.99.4v4c1.57,0,3.01-.18,4.26-.6l-.64-1.9ZM169.23,33.39v-2c-1.05,0-1.95-.16-2.72-.46l-.72,1.87-.72,1.87c1.29.5,2.68.73,4.15.73v-2ZM165.8,32.8l.72-1.86c-.74-.29-1.36-.71-1.89-1.29l-1.47,1.36-1.47,1.36c.95,1.03,2.08,1.8,3.39,2.31l.72-1.86ZM163.16,31l1.49-1.34c-.51-.57-.94-1.32-1.26-2.3l-1.91.61-1.9.61c.46,1.43,1.14,2.7,2.09,3.76l1.49-1.34ZM161.48,27.97l1.91-.6c-.31-.97-.49-2.2-.49-3.73h-4c0,1.81.21,3.47.67,4.93l1.91-.6ZM160.91,23.64h2v-3.88h-4v3.88h2ZM160.91,19.77h2c0-1.51.17-2.74.46-3.72l-1.92-.57-1.92-.57c-.43,1.45-.63,3.08-.63,4.87h2ZM161.45,15.47l1.91.58c.31-1.01.73-1.77,1.22-2.33l-1.51-1.31-1.51-1.31c-.93,1.06-1.59,2.35-2.03,3.79l1.91.58ZM163.08,12.41l1.51,1.31c.51-.58,1.09-1,1.77-1.27l-.75-1.85-.75-1.85c-1.28.52-2.38,1.31-3.29,2.35l1.51,1.31ZM165.61,10.59l.74,1.86c.72-.29,1.57-.45,2.6-.45v-4c-1.45,0-2.82.23-4.09.74l.74,1.86ZM168.95,10v2c1.5,0,2.56.25,3.27.63l.93-1.77.93-1.77c-1.47-.77-3.22-1.09-5.13-1.09v2ZM173.16,10.86l-.92,1.78c.73.38,1.26.91,1.63,1.67l1.79-.89,1.79-.89c-.75-1.5-1.88-2.66-3.37-3.43l-.92,1.78ZM175.66,13.41l-1.78.91c.42.83.72,1.93.82,3.37l2-.14,1.99-.14c-.13-1.83-.52-3.48-1.24-4.91l-1.78.91ZM176.69,17.55v-2h-4.42v4h4.42v-2ZM172.27,17.55l1.99-.15c-.08-1.07-.27-2.09-.66-2.94l-1.82.84-1.82.84c.11.23.24.72.31,1.56l2-.15ZM171.78,15.3l1.83-.81c-.38-.87-1-1.64-1.92-2.12l-.93,1.77-.93,1.77s0,0,0,0c.02.02.06.07.11.18l1.83-.81ZM170.77,14.14l.96-1.75c-.83-.45-1.76-.61-2.66-.61v4c.49,0,.69.09.74.11l.96-1.75ZM169.06,13.78v-2c-.84,0-1.68.15-2.46.53l.88,1.8.88,1.8c.12-.06.34-.13.7-.13v-2ZM167.48,14.11l-.84-1.81c-.85.39-1.5,1.02-1.97,1.78l1.69,1.07,1.69,1.07c.13-.2.23-.26.28-.28l-.84-1.81ZM166.36,15.14l-1.69-1.07c-.47.75-.77,1.62-.94,2.53l1.96.38,1.96.38c.11-.59.27-.95.4-1.16l-1.69-1.07ZM165.69,16.98l-1.96-.38c-.18.92-.26,1.97-.26,3.13h4c0-1,.07-1.78.18-2.37l-1.96-.38ZM165.47,19.73h-2v3.91h4v-3.91h-2ZM165.47,23.64h-2c0,1.17.09,2.24.3,3.18l1.95-.43,1.95-.43c-.13-.58-.2-1.34-.2-2.32h-2ZM165.72,26.39l-1.95.43c.2.93.53,1.8,1.03,2.55l1.66-1.12,1.66-1.12c-.14-.21-.31-.58-.44-1.17l-1.95.43ZM166.45,28.25l-1.64,1.14c.53.76,1.23,1.36,2.09,1.74l.8-1.83.8-1.83c-.14-.06-.27-.16-.41-.36l-1.64,1.14ZM167.7,29.3l-.76,1.85c.8.33,1.67.46,2.55.46v-4c-.49,0-.82-.07-1.04-.16l-.76,1.85ZM169.5,29.61v2c.66,0,1.35-.07,1.98-.28l-.65-1.89-.65-1.89s-.24.06-.68.06v2ZM170.83,29.44l.65,1.89c.41-.14.84-.32,1.21-.56l-1.07-1.69-1.07-1.69s-.13.07-.38.16l.65,1.89ZM171.62,29.08l1.09,1.68c.19-.12.31-.19.37-.23l-.95-1.76-.95-1.76c-.2.11-.43.25-.66.4l1.09,1.68ZM172.14,28.77h2v-4.19h-4v4.19h2ZM172.14,24.58v-2h-3.27v4h3.27v-2ZM168.88,24.58h2v-3.45h-4v3.45h2ZM168.88,21.12v2h7.83v-4h-7.83v2ZM189,10.33v-2h-2.7l.79,2.58,1.91-.58ZM193.02,10.33l1.92-.57-.43-1.43h-1.49v2ZM197.66,25.89l-1.92.57,1.92,6.44,1.91-6.44-1.92-.57ZM202.28,10.33v-2h-1.49l-.43,1.43,1.92.57ZM205.83,10.33l1.92.55.72-2.55h-2.65v2ZM199.36,33.08v2h1.51l.41-1.45-1.92-.55ZM195.94,33.08l-1.91.58.43,1.42h1.48v-2ZM187.38,10.33v-2h-2v2h2ZM191.2,10.33l2-.08-.08-1.92h-1.92v2ZM191.8,25.33h2v-.08s-2,.08-2,.08ZM191.8,33.08v2h2v-2h-2ZM187.38,33.08h-2v2h2v-2ZM204.08,10.33v-2h-1.93l-.07,1.93,2,.07ZM207.92,10.33h2v-2h-2v2ZM207.92,33.08v2h2v-2h-2ZM203.52,33.08h-2v2h2v-2ZM203.52,25.33l-2-.07v.04s0,.04,0,.04h2ZM189,10.33v2h4.02v-4h-4.02v2ZM193.02,10.33l-1.92.57,4.64,15.56,1.92-.57,1.92-.57-4.64-15.56-1.92.57ZM197.66,25.89l1.92.57,4.62-15.56-1.92-.57-1.92-.57-4.62,15.56,1.92.57ZM202.28,10.33v2h3.55v-4h-3.55v2ZM205.83,10.33l-1.92-.55-6.47,22.75,1.92.55,1.92.55,6.47-22.75-1.92-.55ZM199.36,33.08v-2h-3.42v4h3.42v-2ZM195.94,33.08l1.91-.58-6.94-22.75-1.91.58-1.91.58,6.94,22.75,1.91-.58ZM187.38,10.33v2h3.83v-4h-3.83v2ZM191.2,10.33l-2,.08.59,15,2-.08,2-.08-.59-15-2,.08ZM191.8,25.33h-2v7.75h4v-7.75h-2ZM191.8,33.08v-2h-4.42v4h4.42v-2ZM187.38,33.08h2V10.33h-4v22.75h2ZM204.08,10.33v2h3.84v-4h-3.84v2ZM207.92,10.33h-2v22.75h4V10.33h-2ZM207.92,33.08v-2h-4.41v4h4.41v-2ZM203.52,33.08h2v-7.75h-4v7.75h2ZM203.52,25.33l2,.07.56-15-2-.07-2-.07-.56,15,2,.07ZM220.17,14.39l1.93.51.04-.15.02-.16-1.99-.2ZM215.28,33.08v2h1.54l.39-1.49-1.93-.51ZM210.45,33.08l-1.91-.6-.81,2.6h2.72v-2ZM217.56,10.33v-2h-1.47l-.44,1.4,1.91.6ZM220.58,10.33l1.99.2.22-2.2h-2.21v2ZM224.03,33.08l-1.93.51.39,1.49h1.54v-2ZM219.11,14.39l-1.99.22.02.15.04.14,1.93-.51ZM218.66,10.33v-2h-2.24l.25,2.22,1.99-.22ZM221.72,10.33l1.91-.6-.44-1.4h-1.47v2ZM228.89,33.08v2h2.73l-.82-2.6-1.91.6ZM224.2,24.59h2v-2h-2v2ZM224.2,28.39v2h2v-2h-2ZM213.94,28.39h-2v2h2v-2ZM213.94,24.59v-2h-2v2h2ZM217.86,35.08l-1.33-1.5h-.01s0,.02,0,.02l1.34,1.48ZM221.53,35.08l1.35-1.48h0s0-.02,0-.02l-1.33,1.5ZM217.86,38.19l-1.34,1.48,1.34-1.48ZM220.17,14.39l-1.93-.51-4.89,18.69,1.94.51,1.93.51,4.89-18.69-1.93-.51ZM215.28,33.08v-2h-4.83v4h4.83v-2ZM210.45,33.08l1.91.6,7.11-22.75-1.91-.6-1.91-.6-7.11,22.75,1.91.6ZM217.56,10.33v2h3.02v-4h-3.02v2ZM220.58,10.33l-1.99-.2-.41,4.06,1.99.2,1.99.2.41-4.06-1.99-.2ZM224.03,33.08l1.93-.51-4.92-18.69-1.93.51-1.93.51,4.92,18.69,1.93-.51ZM219.11,14.39l1.99-.22-.45-4.06-1.99.22-1.99.22.45,4.06,1.99-.22ZM218.66,10.33v2h3.06v-4h-3.06v2ZM221.72,10.33l-1.91.6,7.17,22.75,1.91-.6,1.91-.6-7.17-22.75-1.91.6ZM228.89,33.08v-2h-4.86v4h4.86v-2ZM224.2,24.59h-2v3.8h4v-3.8h-2ZM224.2,28.39v-2h-10.26v4h10.26v-2ZM213.94,28.39h2v-3.8h-4v3.8h2ZM213.94,24.59v2h10.26v-4h-10.26v2ZM217.17,36.64h2s0-.05,0-.06c0,0,0,0,0,0,0,0,0,0,0,0,0,0,.01-.01.03-.03l-1.35-1.48-1.34-1.48c-.88.8-1.34,1.86-1.34,3.04h2ZM217.86,35.08l1.33,1.5s.1-.11.52-.11v-4c-1.13,0-2.26.3-3.17,1.11l1.33,1.5ZM219.7,34.47v2c.39,0,.49.1.5.11l1.33-1.5,1.33-1.5c-.91-.8-2.03-1.11-3.15-1.11v2ZM221.53,35.08l-1.35,1.48s.03.03.03.03c0,0,0,0,0,0,0,0,0,0,0,0,0,0,0,.02,0,.06h4c0-1.18-.46-2.24-1.34-3.04l-1.35,1.48ZM222.22,36.64h-2s0,.04,0,.05c0,0,0,0,0,0,0,0,0,0,0,0,0,0-.01.02-.04.04l1.35,1.48,1.35,1.48c.87-.79,1.34-1.84,1.34-3.03h-2ZM221.53,38.19l-1.35-1.48s-.1.1-.48.1v4c1.14,0,2.27-.32,3.17-1.15l-1.35-1.48ZM219.7,38.81v-2c-.4,0-.49-.1-.5-.1l-1.35,1.48-1.34,1.48c.91.83,2.05,1.15,3.19,1.15v-2ZM217.86,38.19l1.35-1.48s-.03-.03-.04-.04c0,0,0,0,0,0,0,0,0,.01,0,0,0,0,0-.02,0-.05h-4c0,1.18.47,2.23,1.34,3.03l1.34-1.48ZM235.81,10.33h2v-2h-2v2ZM235.81,33.08v2h2v-2h-2ZM231.27,33.08h-2v2h2v-2ZM231.27,10.33v-2h-2v2h2ZM235.81,10.33h-2v22.75h4V10.33h-2ZM235.81,33.08v-2h-4.55v4h4.55v-2ZM231.27,33.08h2V10.33h-4v22.75h2ZM231.27,10.33v2h4.55v-4h-4.55v2ZM249.48,33.08l-2-.02-.02,2.02h2.02v-2ZM249.52,29.3v-2h-1.98l-.02,1.98,2,.02ZM256.08,28.7l-1.08-1.68,1.08,1.68ZM257.38,26.83l-1.91-.58h0s0,.02,0,.02l1.92.56ZM257.56,17.25l-1.97.36h0s1.97-.36,1.97-.36ZM256.88,15.47l-1.63,1.15h0s0,.02,0,.02l1.62-1.17ZM249.41,14.12h-2v2h2v-2ZM249.41,10.33v-2h-2v2h2ZM259.91,12.84l-1.46,1.37h0s1.45-1.37,1.45-1.37ZM259.91,30.58l-1.46-1.37h0s1.46,1.37,1.46,1.37ZM252.14,10.33h2v-2h-2v2ZM252.14,33.08v2h2v-2h-2ZM247.56,33.08h-2v2h2v-2ZM247.56,10.33v-2h-2v2h2ZM255.03,20.19h2v-2h-2v2ZM255.03,23.03v2h2v-2h-2ZM245.56,23.03h-2v2h2v-2ZM245.56,20.19v-2h-2v2h2ZM253.5,33.08v-2h-4.02v4h4.02v-2ZM249.48,33.08l2,.02.03-3.78-2-.02-2-.02-.03,3.78,2,.02ZM249.52,29.3v2h3.98v-4h-3.98v2ZM253.5,29.3v2c1.3,0,2.6-.23,3.66-.91l-1.08-1.68-1.08-1.68c-.17.11-.59.28-1.49.28v2ZM256.08,28.7l1.08,1.68c1.1-.71,1.78-1.78,2.13-2.99l-1.92-.56-1.92-.56c-.15.5-.33.67-.46.76l1.08,1.68ZM257.38,26.83l1.91.58c.34-1.12.48-2.46.48-3.94h-4c0,1.28-.12,2.18-.3,2.78l1.91.58ZM257.77,23.47h2v-3.55h-4v3.55h2ZM257.77,19.92h2c0-1.13-.07-2.15-.24-3.04l-1.97.37-1.97.37c.11.57.17,1.33.17,2.31h2ZM257.56,17.25l1.97-.36c-.17-.93-.48-1.83-1.03-2.59l-1.62,1.17-1.62,1.17c.1.14.24.42.34.97l1.97-.36ZM256.88,15.47l1.64-1.15c-.55-.79-1.3-1.36-2.18-1.72l-.75,1.85-.75,1.85c.2.08.32.18.41.31l1.63-1.15ZM255.58,14.45l.75-1.85c-.85-.34-1.79-.47-2.76-.47v4c.64,0,1.03.09,1.27.18l.75-1.85ZM253.56,14.12v-2h-4.16v4h4.16v-2ZM249.41,14.12h2v-3.8h-4v3.8h2ZM249.41,10.33v2h4.16v-4h-4.16v2ZM253.56,10.33v2c1.09,0,2.03.18,2.84.5l.74-1.86.74-1.86c-1.34-.53-2.79-.78-4.32-.78v2ZM257.14,10.97l-.74,1.86c.81.32,1.48.78,2.05,1.38l1.46-1.37,1.46-1.37c-.98-1.04-2.15-1.83-3.49-2.37l-.74,1.86ZM259.91,12.84l-1.45,1.38c.55.58,1.01,1.33,1.34,2.3l1.89-.66,1.89-.66c-.5-1.43-1.23-2.69-2.22-3.74l-1.45,1.38ZM261.69,15.86l-1.89.66c.33.95.51,2.08.51,3.44h4c0-1.71-.23-3.3-.74-4.75l-1.89.66ZM262.31,19.95h-2v3.52h4v-3.52h-2ZM262.31,23.47h-2c0,1.37-.18,2.5-.51,3.43l1.89.66,1.89.66c.51-1.44.74-3.04.74-4.76h-2ZM261.69,27.56l-1.89-.66c-.33.96-.79,1.71-1.35,2.31l1.46,1.37,1.46,1.37c.98-1.05,1.71-2.3,2.21-3.72l-1.89-.66ZM259.91,30.58l-1.46-1.37c-.55.59-1.22,1.04-2.04,1.37l.73,1.86.73,1.86c1.35-.53,2.52-1.31,3.49-2.35l-1.46-1.37ZM257.14,32.44l-.73-1.86c-.82.32-1.78.5-2.91.5v4c1.56,0,3.02-.25,4.37-.78l-.73-1.86ZM252.14,10.33h-2v22.75h4V10.33h-2ZM252.14,33.08v-2h-4.58v4h4.58v-2ZM247.56,33.08h2V10.33h-4v22.75h2ZM247.56,10.33v2h4.58v-4h-4.58v2ZM255.03,20.19h-2v2.84h4v-2.84h-2ZM255.03,23.03v-2h-9.47v4h9.47v-2ZM245.56,23.03h2v-2.84h-4v2.84h2ZM245.56,20.19v2h9.47v-4h-9.47v2ZM270.41,10.33h2v-2h-2v2ZM270.41,33.08v2h2v-2h-2ZM265.86,33.08h-2v2h2v-2ZM265.86,10.33v-2h-2v2h2ZM270.41,10.33h-2v22.75h4V10.33h-2ZM270.41,33.08v-2h-4.55v4h4.55v-2ZM265.86,33.08h2V10.33h-4v22.75h2ZM265.86,10.33v2h4.55v-4h-4.55v2ZM287.36,29.3h2v-2h-2v2ZM287.36,33.08v2h2v-2h-2ZM277.47,33.08h-2v2h2v-2ZM277.47,29.3v-2h-2v2h2ZM278.89,10.33h2v-2h-2v2ZM278.89,33.08v2h2v-2h-2ZM274.31,33.08h-2v2h2v-2ZM274.31,10.33v-2h-2v2h2ZM286.03,19.55h2v-2h-2v2ZM286.03,23.22v2h2v-2h-2ZM277.47,23.22h-2v2h2v-2ZM277.47,19.55v-2h-2v2h2ZM287.33,10.33h2v-2h-2v2ZM287.33,14.12v2h2v-2h-2ZM277.47,14.12h-2v2h2v-2ZM277.47,10.33v-2h-2v2h2ZM282.41,4.17l1.46-1.37-.59-.63h-.86v2ZM286.52,8.53h2v-.79l-.54-.58-1.46,1.37ZM286.52,8.72v2h2v-2h-2ZM283.11,8.72l-1.51,1.32.6.68h.91v-2ZM281.16,6.48l1.51-1.32-1.51-1.72-1.51,1.72,1.51,1.32ZM279.2,8.72v2h.91l.6-.68-1.51-1.32ZM275.84,8.72h-2v2h2v-2ZM275.84,8.5l-1.46-1.37-.54.58v.79h2ZM279.91,4.17v-2h-.87l-.59.63,1.46,1.37ZM279.34,35.03l-1.33-1.5h0s-.01.02-.01.02l1.35,1.48ZM283.02,35.03l1.35-1.48h0s0-.02,0-.02l-1.33,1.5ZM287.36,29.3h-2v3.78h4v-3.78h-2ZM287.36,33.08v-2h-9.89v4h9.89v-2ZM277.47,33.08h2v-3.78h-4v3.78h2ZM277.47,29.3v2h9.89v-4h-9.89v2ZM278.89,10.33h-2v22.75h4V10.33h-2ZM278.89,33.08v-2h-4.58v4h4.58v-2ZM274.31,33.08h2V10.33h-4v22.75h2ZM274.31,10.33v2h4.58v-4h-4.58v2ZM286.03,19.55h-2v3.67h4v-3.67h-2ZM286.03,23.22v-2h-8.56v4h8.56v-2ZM277.47,23.22h2v-3.67h-4v3.67h2ZM277.47,19.55v2h8.56v-4h-8.56v2ZM287.33,10.33h-2v3.8h4v-3.8h-2ZM287.33,14.12v-2h-9.86v4h9.86v-2ZM277.47,14.12h2v-3.8h-4v3.8h2ZM277.47,10.33v2h9.86v-4h-9.86v2ZM282.41,4.17l-1.46,1.37,4.11,4.36,1.46-1.37,1.46-1.37-4.11-4.36-1.46,1.37ZM286.52,8.53h-2v.19h4v-.19h-2ZM286.52,8.72v-2h-3.41v4h3.41v-2ZM283.11,8.72l1.51-1.32-1.95-2.23-1.51,1.32-1.51,1.32,1.95,2.23,1.51-1.32ZM281.16,6.48l-1.51-1.32-1.95,2.23,1.51,1.32,1.51,1.32,1.95-2.23-1.51-1.32ZM279.2,8.72v-2h-3.36v4h3.36v-2ZM275.84,8.72h2v-.22h-4v.22h2ZM275.84,8.5l1.46,1.37,4.06-4.33-1.46-1.37-1.46-1.37-4.06,4.33,1.46,1.37ZM279.91,4.17v2h2.5v-4h-2.5v2ZM278.66,36.59h2s0-.05,0-.06c0,0,0,0,0,0,0,0,0,0,0,0,0,0,.01-.01.03-.03l-1.35-1.48-1.35-1.48c-.88.8-1.34,1.86-1.34,3.04h2ZM279.34,35.03l1.33,1.5s.1-.11.52-.11v-4c-1.13,0-2.26.3-3.17,1.11l1.33,1.5ZM281.19,34.42v2c.39,0,.49.1.5.11l1.33-1.5,1.33-1.5c-.91-.8-2.03-1.11-3.15-1.11v2ZM283.02,35.03l-1.35,1.48s.03.03.03.03c0,0,0,0,0,0,0,0,0,0,0,0,0,0,0,.02,0,.06h4c0-1.18-.46-2.24-1.34-3.04l-1.35,1.48ZM283.7,36.59h-2s0,.04,0,.04c0,0,0,0,0,0,0,0,0,0,0,0,0,0-.01.02-.04.04l1.35,1.48,1.35,1.48c.87-.79,1.34-1.84,1.34-3.03h-2ZM283.02,38.14l-1.35-1.48s-.1.1-.48.1v4c1.14,0,2.27-.32,3.17-1.15l-1.35-1.48ZM281.19,38.77v-2c-.4,0-.49-.1-.5-.1l-1.35,1.48-1.35,1.48c.91.83,2.05,1.15,3.19,1.15v-2ZM279.34,38.14l1.35-1.48s-.03-.03-.04-.04c0,0,0,0,0,0,0,0,0,.01,0,0,0,0,0-.02,0-.04h-4c0,1.18.47,2.23,1.34,3.03l1.35-1.48ZM305.94,10.33h2v-2h-2v2ZM305.94,33.08v2h2v-2h-2ZM301.52,33.08l-1.79.9.55,1.1h1.23v-2ZM294.38,18.84l1.79-.9-3.79.9h2ZM294.38,33.08v2h2v-2h-2ZM290.03,33.08h-2v2h2v-2ZM290.03,10.33v-2h-2v2h2ZM294.39,10.33l1.79-.9-.55-1.1h-1.24v2ZM301.59,24.72l-1.79.9,3.79-.9h-2ZM301.59,10.33v-2h-2v2h2ZM305.94,10.33h-2v22.75h4V10.33h-2ZM305.94,33.08v-2h-4.42v4h4.42v-2ZM301.52,33.08l1.79-.9-7.14-14.23-1.79.9-1.79.9,7.14,14.23,1.79-.9ZM294.38,18.84h-2v14.23h4v-14.23h-2ZM294.38,33.08v-2h-4.34v4h4.34v-2ZM290.03,33.08h2V10.33h-4v22.75h2ZM290.03,10.33v2h4.36v-4h-4.36v2ZM294.39,10.33l-1.79.9,7.2,14.39,1.79-.9,1.79-.9-7.2-14.39-1.79.9ZM301.59,24.72h2v-14.39h-4v14.39h2ZM301.59,10.33v2h4.34v-4h-4.34v2ZM325.12,10.33h2v-2h-2v2ZM325.12,33.08v2h2v-2h-2ZM320.58,33.08h-2v2h2v-2ZM320.58,10.33v-2h-2v2h2ZM330.78,10.33h2v-2h-2v2ZM330.78,14.12v2h2v-2h-2ZM315.03,14.12h-2v2h2v-2ZM315.03,10.33v-2h-2v2h2ZM325.12,10.33h-2v22.75h4V10.33h-2ZM325.12,33.08v-2h-4.55v4h4.55v-2ZM320.58,33.08h2V10.33h-4v22.75h2ZM320.58,10.33v2h4.55v-4h-4.55v2ZM330.78,10.33h-2v3.8h4v-3.8h-2ZM330.78,14.12v-2h-15.75v4h15.75v-2ZM315.03,14.12h2v-3.8h-4v3.8h2ZM315.03,10.33v2h15.75v-4h-15.75v2ZM350.67,9.06v-2h-2v2h2ZM353.55,9.06h2v-2h-2v2ZM353.02,13.02l-1.9-.62h0s1.91.62,1.91.62ZM347.66,16.36h-2v2h2v-2ZM347.66,13.89v-2h-2v2h2ZM349.69,13.31l-1.34-1.48h0s0,.02,0,.02l1.36,1.47ZM343.66,10.33v-2h-2v2h2ZM348.22,10.33h2v-2h-2v2ZM347.25,29.77l-1.76-.94h0s1.77.94,1.77.94ZM344.61,32.48l.95,1.76h0s0,0,0,0l-.96-1.76ZM336.86,32.48l-.95,1.76h0s0,0,0,0l.94-1.77ZM334.2,29.77l-1.78.92h0s0,.02,0,.02l1.77-.94ZM333.27,10.33v-2h-2v2h2ZM337.83,10.33h2v-2h-2v2ZM338.16,27.77l-1.89.65h0s0,.03,0,.03l1.88-.68ZM339.14,29.17l-1.15,1.63.02.02.02.02,1.11-1.66ZM342.34,29.17l1.15,1.64h0s-1.15-1.64-1.15-1.64ZM343.31,27.77l-1.88-.68h0s0,.03,0,.03l1.89.65ZM343.05,8.3v2h1.97l.03-1.97-2-.03ZM339.78,8.3l-1.99.21.19,1.79h1.8v-2ZM339.56,6.2l-.16-1.99-2.05.16.21,2.04,1.99-.21ZM340.52,6.05l.58,1.91h.02s.03-.02.03-.02l-.63-1.9ZM341.06,5.72l1.53,1.29.02-.03.02-.03-1.57-1.24ZM341.12,4.66l-1.79.89v.03s.03.03.03.03l1.76-.95ZM340.8,4.33l-.99,1.74.05.03.05.02.89-1.79ZM339.61,4.11l-2-.09-.09,2.09h2.09v-2ZM339.7,2V0h-1.91l-.09,1.91,2,.09ZM341.97,2.2l-.41,1.96h0s.4-1.96.4-1.96ZM343.59,2.8l-1.04,1.71h0s0,.01,0,.01l1.02-1.72ZM344.56,3.77l-1.76.95.02.03.02.03,1.73-1.01ZM344.31,6.64l1.33,1.49h.01s.01-.02.01-.02l-1.35-1.47ZM343.06,7.28l-.37-1.97-1.61.3-.03,1.64,2,.03ZM350.67,9.06v2h2.88v-4h-2.88v2ZM353.55,9.06h-2c0,1.4-.16,2.5-.43,3.34l1.9.62,1.9.62c.44-1.35.63-2.88.63-4.57h-2ZM353.02,13.02l-1.91-.6c-.22.7-.57,1.13-1,1.43l1.11,1.66,1.11,1.66c1.27-.85,2.12-2.07,2.59-3.54l-1.91-.6ZM351.22,15.5l-1.11-1.66c-.4.27-1.15.52-2.45.52v4c1.74,0,3.37-.32,4.68-1.2l-1.11-1.66ZM347.66,16.36h2v-2.47h-4v2.47h2ZM347.66,13.89v2c1.13,0,2.43-.22,3.39-1.11l-1.36-1.47-1.36-1.47c.07-.07.1-.05,0-.02-.11.03-.32.07-.66.07v2ZM349.69,13.31l1.34,1.48c.85-.77,1.28-1.78,1.45-2.83l-1.98-.31-1.98-.31c-.06.39-.17.48-.18.49l1.34,1.48ZM350.5,11.66l1.98.31c.14-.85.2-1.83.2-2.91h-4c0,.94-.05,1.7-.15,2.28l1.98.31ZM343.66,10.33v2h4.56v-4h-4.56v2ZM348.22,10.33h-2v15h4v-15h-2ZM348.22,25.33h-2c0,1.51-.28,2.65-.73,3.49l1.76.94,1.76.94c.84-1.57,1.2-3.39,1.2-5.38h-2ZM347.25,29.77l-1.77-.94c-.46.87-1.07,1.49-1.83,1.9l.96,1.76.96,1.76c1.49-.81,2.64-2.01,3.45-3.54l-1.77-.94ZM344.61,32.48l-.95-1.76c-.8.43-1.75.67-2.91.67v4c1.73,0,3.35-.36,4.81-1.14l-.95-1.76ZM340.75,33.39v-2c-1.17,0-2.14-.24-2.95-.67l-.94,1.77-.94,1.77c1.46.78,3.09,1.14,4.83,1.14v-2ZM336.86,32.48l.95-1.76c-.77-.42-1.38-1.03-1.84-1.9l-1.77.94-1.77.94c.81,1.53,1.97,2.73,3.47,3.54l.95-1.76ZM334.2,29.77l1.78-.92c-.44-.85-.71-2-.71-3.52h-4c0,1.98.35,3.79,1.16,5.36l1.78-.92ZM333.27,25.33h2v-15h-4v15h2ZM333.27,10.33v2h4.56v-4h-4.56v2ZM337.83,10.33h-2v15h4v-15h-2ZM337.83,25.33h-2c0,1.12.12,2.17.44,3.09l1.89-.65,1.89-.65c-.12-.35-.22-.92-.22-1.79h-2ZM338.16,27.77l-1.88.68c.33.91.86,1.76,1.71,2.36l1.15-1.63,1.15-1.63s-.13-.09-.26-.45l-1.88.68ZM339.14,29.17l-1.11,1.66c.83.55,1.77.77,2.72.77v-4c-.32,0-.45-.07-.5-.1l-1.11,1.66ZM340.75,29.61v2c.95,0,1.91-.22,2.74-.8l-1.15-1.64-1.15-1.64s-.03.02-.09.04c-.07.02-.18.04-.35.04v2ZM342.34,29.17l1.15,1.63c.86-.61,1.39-1.47,1.71-2.39l-1.89-.65-1.89-.65c-.06.18-.12.28-.16.34-.04.06-.07.08-.07.08l1.15,1.63ZM343.31,27.77l1.88.68c.33-.93.46-1.99.46-3.12h-4c0,.86-.1,1.42-.23,1.76l1.88.68ZM343.66,25.33h2v-15h-4v15h2ZM343.05,8.3v-2h-3.27v4h3.27v-2ZM339.78,8.3l1.99-.21-.22-2.09-1.99.21-1.99.21.22,2.09,1.99-.21ZM339.56,6.2l.16,1.99c.47-.04.94-.1,1.38-.24l-.58-1.91-.58-1.91s-.2.05-.53.08l.16,1.99ZM340.52,6.05l.63,1.9c.44-.15,1-.41,1.44-.93l-1.53-1.29-1.53-1.29c.11-.13.21-.2.27-.24.06-.04.09-.04.07-.04l.63,1.9ZM341.06,5.72l1.57,1.24c.44-.56.6-1.2.6-1.78h-4c0-.15.05-.42.26-.69l1.57,1.24ZM341.23,5.17h2c0-.43-.07-.95-.35-1.46l-1.76.95-1.76.95c-.13-.24-.13-.42-.13-.43h2ZM341.12,4.66l1.79-.89c-.27-.53-.69-.96-1.22-1.22l-.89,1.79-.89,1.79c-.11-.05-.22-.13-.33-.24-.11-.11-.18-.22-.24-.33l1.79-.89ZM340.8,4.33l.99-1.74c-.39-.22-.8-.35-1.2-.41l-.31,1.98-.31,1.98s-.06,0-.16-.07l.99-1.74ZM340.28,4.16l.31-1.98c-.32-.05-.65-.07-.98-.07v4c.17,0,.29.01.36.02l.31-1.98ZM339.61,4.11l2,.09.09-2.11-2-.09-2-.09-.09,2.11,2,.09ZM339.7,2v2c.77,0,1.38.06,1.86.16l.41-1.96.41-1.96c-.82-.17-1.71-.25-2.68-.25v2ZM341.97,2.2l-.4,1.96c.5.1.81.23.99.34l1.04-1.71,1.04-1.71c-.68-.41-1.45-.68-2.26-.84l-.4,1.96ZM343.59,2.8l-1.02,1.72c.18.11.22.18.23.2l1.76-.95,1.76-.95c-.41-.75-1.01-1.32-1.7-1.74l-1.02,1.72ZM344.56,3.77l-1.73,1.01s.06.11.06.27h4c0-.8-.19-1.58-.6-2.29l-1.73,1.01ZM344.89,5.05h-2c0,.18-.02.25-.02.25,0,0,0-.02.02-.05.02-.03.04-.06.07-.08l1.35,1.47,1.35,1.47c.93-.85,1.23-2,1.23-3.07h-2ZM344.31,6.64l-1.33-1.49c-.15.13-.24.16-.28.17l.37,1.97.37,1.97c.85-.16,1.6-.56,2.22-1.11l-1.33-1.49ZM343.06,7.28l-2-.03-.02,1.02,2,.03,2,.03.02-1.02-2-.03Z"/>
  </g>
</svg>